<svg width="29" height="42" fill="none" xmlns="http://www.w3.org/2000/svg"><path fill-rule="evenodd" clip-rule="evenodd" d="M27.54 22.348v15.884A2.77 2.77 0 0 1 24.774 41H3.767A2.771 2.771 0 0 1 1 38.232V12.246a4.728 4.728 0 0 1 4.722-4.724h.026V5.49c0-.666.542-1.208 1.207-1.208h.23V1.5a.5.5 0 0 1 .5-.5h3.83a.5.5 0 0 1 .5.5v2.783h.23c.665 0 1.207.542 1.207 1.208v2.031h.208c1.699 0 3.328.723 4.47 1.98l7.745 8.534a6.402 6.402 0 0 1 1.664 4.312ZM11.013 2H8.182v2.282h2.832V2Zm-4.06 3.282a.208.208 0 0 0-.208.208v2.032h5.705V5.49a.208.208 0 0 0-.207-.208h-5.29Zm6.706 3.24H5.72A3.727 3.727 0 0 0 2 12.246V26.5h24.54v-4.153c0-1.35-.499-2.642-1.405-3.64l-7.744-8.534a5.05 5.05 0 0 0-3.73-1.652ZM3.767 40h21.006a1.77 1.77 0 0 0 1.767-1.769V27.501H2v10.731a1.77 1.77 0 0 0 1.767 1.769Zm16.35-15.928a2.447 2.447 0 0 1-1.794-.779l-5.487-5.878a2.455 2.455 0 1 1 3.587-3.355l5.488 5.879a2.46 2.46 0 0 1-.118 3.472 2.446 2.446 0 0 1-1.675.66Zm-5.488-9.791c-.356 0-.713.13-.993.392h.001a1.447 1.447 0 0 0-.461 1.015c-.014.388.125.759.39 1.044l5.488 5.878a1.456 1.456 0 1 0 2.126-1.99l-5.487-5.878a1.454 1.454 0 0 0-1.064-.461Z" fill="#72CF64"/><path d="M27.54 38.232h-1v2.414l1.706-1.707-.707-.707Zm0 0h1v-2.415l-1.707 1.707.707.707ZM5.722 7.521v-1 1Zm.026 0v1h1v-1h-1Zm1.437-3.24v1h1v-1h-1Zm4.83.001h-1v1h1v-1Zm1.436 3.24h-1v1h1v-1Zm4.68 1.98.74-.672-.74.672Zm7.744 8.533-.741.672.74-.672ZM8.181 2V1h-1v1h1Zm2.832 0h1V1h-1v1ZM8.182 4.282h-1v1h1v-1Zm2.832 0v1h1v-1h-1Zm-4.268 3.24h-1v1h1v-1Zm5.705 0v1h1v-1h-1ZM2 26.502H1v1h1v-1Zm24.54 0v1h1v-1h-1Zm-1.404-7.794-.74.672.74-.672Zm-7.744-8.534.74-.672-.74.672Zm9.149 17.327h1v-1h-1v1ZM2 27.5v-1H1v1h1Zm16.323-4.207-.73.683.73-.683Zm-5.487-5.878.731-.683-.731.683Zm.118-3.473.683.73-.683-.73Zm3.469.118-.731.682.731-.682Zm5.488 5.879.731-.683-.731.683Zm-.118 3.472.683.73-.683-.73Zm-8.157-8.738-.682-.731-1.854 1.73h2.536v-1Zm.001 0 .683.73 1.85-1.73h-2.533v1Zm-.461 1.015 1 .034-1-.034Zm.39 1.044-.73.682.73-.682Zm5.488 5.878-.731.683.73-.683Zm2.057.07-.683-.73.683.73Zm.07-2.06-.732.683.731-.682Zm-5.488-5.878.731-.682-.73.682Zm12.846 23.49V22.347h-2v15.884h2Zm-1.706-.709-.001.001 1.414 1.414h.001l-1.414-1.415ZM24.773 42a3.77 3.77 0 0 0 3.767-3.769h-2A1.77 1.77 0 0 1 24.774 40v2ZM3.768 42h21.007v-2H3.767v2ZM0 38.232A3.771 3.771 0 0 0 3.767 42v-2A1.771 1.771 0 0 1 2 38.232H0Zm0-25.986v25.986h2V12.246H0Zm5.721-5.724A5.728 5.728 0 0 0 0 12.246h2a3.728 3.728 0 0 1 3.722-3.724v-2Zm.027 0h-.026v2h.026v-2Zm-1-1.032v2.032h2V5.49h-2Zm2.207-2.208c-1.218 0-2.207.99-2.207 2.208h2c0-.114.095-.208.207-.208v-2Zm.23 0h-.23v2h.23v-2Zm-1-1.782v2.782h2V1.5h-2Zm1.5-1.5a1.5 1.5 0 0 0-1.5 1.5h2a.5.5 0 0 1-.5.5V0Zm3.83 0h-3.83v2h3.83V0Zm1.5 1.5a1.5 1.5 0 0 0-1.5-1.5v2a.5.5 0 0 1-.5-.5h2Zm0 2.783V1.5h-2v2.783h2Zm-.77-1h-.23v2h.23v-2Zm2.207 2.208a2.209 2.209 0 0 0-2.207-2.208v2c.112 0 .207.094.207.208h2Zm0 2.031v-2.03h-2v2.03h2Zm-.792-1h-.209v2h.21v-2Zm5.21 2.309a7.051 7.051 0 0 0-5.21-2.309v2c1.416 0 2.776.603 3.73 1.653l1.48-1.345Zm7.745 8.533-7.744-8.533-1.481 1.344 7.744 8.533 1.481-1.344Zm1.924 4.984a7.402 7.402 0 0 0-1.924-4.984l-1.481 1.344a5.402 5.402 0 0 1 1.405 3.64h2ZM8.182 3h2.832V1H8.182v2Zm1 1.282V2h-2v2.282h2Zm1.832-1H8.182v2h2.832v-2Zm-1-1.282v2.282h2V2h-2ZM7.746 5.49a.792.792 0 0 1-.792.792v-2c-.671 0-1.208.545-1.208 1.208h2Zm0 2.032V5.49h-2v2.032h2Zm4.705-1H6.746v2h5.705v-2Zm-1-1.032v2.032h2V5.49h-2Zm.793.792a.792.792 0 0 1-.793-.792h2c0-.666-.54-1.208-1.207-1.208v2Zm-5.29 0h5.29v-2h-5.29v2ZM5.72 9.522h7.94v-2H5.72v2ZM3 12.246a2.727 2.727 0 0 1 2.72-2.724v-2A4.727 4.727 0 0 0 1 12.246h2ZM3 26.5V12.246H1V26.5h2Zm23.54-1H2v2h24.54v-2Zm-1-3.153v4.154h2v-4.154h-2Zm-1.145-2.968a4.405 4.405 0 0 1 1.145 2.968h2c0-1.598-.591-3.13-1.665-4.313l-1.48 1.345Zm-7.745-8.534 7.744 8.534 1.482-1.345-7.745-8.533-1.48 1.344Zm-2.99-1.324a4.05 4.05 0 0 1 2.99 1.325l1.481-1.345a6.05 6.05 0 0 0-4.47-1.98v2ZM24.773 39H3.767v2h21.006v-2Zm.767-.769a.77.77 0 0 1-.767.769v2a2.77 2.77 0 0 0 2.767-2.769h-2Zm0-10.731v10.731h2V27.501h-2ZM2 28.5h24.54v-2H2v2Zm1 9.731V27.501H1v10.731h2Zm.767.769A.77.77 0 0 1 3 38.232H1a2.77 2.77 0 0 0 2.767 2.769v-2Zm13.825-15.024a3.447 3.447 0 0 0 2.526 1.096v-2c-.393 0-.779-.155-1.064-.461l-1.462 1.365Zm-5.487-5.88 5.487 5.88 1.462-1.365-5.487-5.879-1.462 1.365Zm.166-4.884a3.46 3.46 0 0 0-.166 4.885l1.462-1.365a1.46 1.46 0 0 1 .07-2.06l-1.366-1.46Zm4.883.166a3.455 3.455 0 0 0-4.883-.166l1.366 1.46a1.455 1.455 0 0 1 2.055.07l1.462-1.364Zm5.488 5.878-5.488-5.878-1.462 1.364 5.488 5.88 1.462-1.366Zm-.166 4.886a3.46 3.46 0 0 0 .166-4.886l-1.462 1.365a1.46 1.46 0 0 1-.07 2.06l1.366 1.46Zm-2.358.93c.843 0 1.693-.308 2.358-.93l-1.366-1.461c-.28.261-.635.39-.992.39v2Zm-5.8-9.669a.45.45 0 0 1 .311-.122v-2c-.6 0-1.204.22-1.675.66l1.365 1.462Zm-.68-1.73h-.002v2h.001v-2Zm.537 2.05a.447.447 0 0 1 .145-.32l-1.366-1.46a2.447 2.447 0 0 0-.778 1.71l2 .07Zm.123.326a.446.446 0 0 1-.123-.327l-1.999-.069a2.446 2.446 0 0 0 .66 1.76l1.462-1.364Zm5.487 5.879-5.487-5.879-1.463 1.365 5.488 5.879 1.462-1.365Zm.643.022a.456.456 0 0 1-.643-.022l-1.462 1.365a2.456 2.456 0 0 0 3.471.117l-1.366-1.46Zm.021-.647a.46.46 0 0 1-.021.647l1.366 1.46a2.46 2.46 0 0 0 .117-3.472l-1.462 1.365Zm-5.487-5.878 5.487 5.878 1.462-1.364-5.487-5.88-1.462 1.365Zm-.333-.144c.124 0 .244.049.334.144l1.46-1.366a2.454 2.454 0 0 0-1.794-.778v2Z" fill="#72CF64"/></svg>