<svg width="26" height="30" fill="none" xmlns="http://www.w3.org/2000/svg"><path d="M12.643 0 0 4.214v12.643C0 23.84 5.66 29.5 12.643 29.5c6.983 0 12.643-5.66 12.643-12.643V4.214L12.643 0Zm10.272 16.857c0 5.673-4.6 10.273-10.272 10.273-5.673 0-10.272-4.6-10.272-10.273V5.992l10.272-3.621 10.272 3.621v10.865Z" fill="#72CF64"/><path d="M8.244 13.535a1.182 1.182 0 0 0-1.933.384 1.182 1.182 0 0 0 .257 1.292l4.26 4.26.07.07a1.12 1.12 0 0 0 1.584 0l7.358-7.36a1.12 1.12 0 0 0 0-1.583l-.092-.092a1.117 1.117 0 0 0-1.584 0l-6.476 6.473-3.444-3.444Z" fill="#72CF64"/></svg>