<svg width="39" height="43" fill="none" xmlns="http://www.w3.org/2000/svg"><path d="M11.128 30.403a2.3 2.3 0 0 0-2.297 2.293 2.292 2.292 0 0 0 2.297 2.293 2.3 2.3 0 0 0 2.297-2.293 2.292 2.292 0 0 0-2.297-2.293Zm0 3.058a.727.727 0 1 1 0-1.452.764.764 0 0 1 0 1.452ZM30.805 30.403a2.3 2.3 0 0 0-2.297 2.293 2.292 2.292 0 0 0 2.297 2.293 2.262 2.262 0 0 0 1.636-.66 2.248 2.248 0 0 0 .66-1.633 2.292 2.292 0 0 0-2.296-2.293Zm.325 2.998a.726.726 0 1 1-.325-1.392v-.016a.726.726 0 0 1 .765.742c0 .29-.173.552-.44.666ZM24.098 31.909h-6.89a.765.765 0 1 0 0 1.529h6.89a.765.765 0 1 0 0-1.529Z" fill="#72CF64"/><path d="M35.223 23.982h-1.827l-.616-2.11a5.996 5.996 0 0 0-5.62-3.822H15.77a7.793 7.793 0 0 0 .893-3.626c0-4.311-3.513-7.819-7.83-7.819C4.512 6.605 1 10.113 1 14.424s3.5 7.806 7.808 7.819l-.64 1.77H6.15a1.935 1.935 0 0 0-1.332 3.332l1.634 1.556a3.21 3.21 0 0 0-.653 1.953v3.684a3.15 3.15 0 0 0 1.156 2.479V39.637a2.47 2.47 0 0 0 2.534 2.362h1.317l.052.001c.56 0 1.1-.215 1.506-.601.42-.398.663-.947.678-1.525v-2.127l15.503.05v1.779a2.477 2.477 0 0 0 2.527 2.415h1.316l.047.001a2.188 2.188 0 0 0 2.19-2.141v-2.79c.076-.068.15-.138.221-.214a3.2 3.2 0 0 0 .95-2.293v-3.693a3.207 3.207 0 0 0-.734-2.064l1.492-1.482a1.931 1.931 0 0 0 .045-2.754 1.943 1.943 0 0 0-1.377-.58Zm-32.91-9.558c0-3.589 2.924-6.509 6.518-6.509 3.595 0 6.519 2.92 6.519 6.509 0 1.16-.31 2.3-.896 3.293l.565.333-.528-.31a6.51 6.51 0 0 1-1.175 1.466l.417.447-.42-.446a6.585 6.585 0 0 1-2.45 1.447l.19.582-.19-.58a6.496 6.496 0 0 1-1.826.316l.017.612-.03-.654a4.55 4.55 0 0 1-.193.003c-3.594 0-6.519-2.92-6.519-6.508v-.001Zm7.076 10.73a.752.752 0 0 0 .089-.247l.96-2.684c.034-.073.07-.144.107-.215.236-.053.468-.116.699-.19a7.804 7.804 0 0 0 3.415-2.24H27.16a4.449 4.449 0 0 1 4.134 2.798l.713 2.39a.76.76 0 0 0 .114.382l.754 2.526a2.447 2.447 0 0 0-.18-.007c-1.6.045-3.498 0-5.673 0H8.908c-.145 0-.289.011-.43.031l.911-2.544Zm-3.536 1.09a.405.405 0 0 1 .276-.703h1.484l-.64 1.766-1.12-1.063Zm5.658 13.668a.66.66 0 0 1-.704.597H9.49a.95.95 0 0 1-1.004-.872v-1.94c.14.021.28.035.422.036l2.603.01v2.17Zm21.583-.061a.666.666 0 0 1-.705.611h-1.316a.95.95 0 0 1-.996-.886V37.8l2.634.01c.13-.005.257-.018.383-.038v2.078Zm1.194-5.243c.005.453-.176.888-.498 1.207-.28.306-.672.486-1.086.497l-3.257-.01a.763.763 0 0 0-.265-.001l-20.289-.065a1.633 1.633 0 0 1-1.577-1.667v-3.684A1.685 1.685 0 0 1 7.79 29.7c.282-.312.68-.495 1.102-.504l11.92.06c1.792-.045 4.104 0 6.21 0h5.695c.404.004.789.167 1.072.451.323.325.503.766.498 1.224v3.677Zm1.21-8.394-1.135 1.082-.522-1.785h1.382c.167-.001.316.103.375.26a.382.382 0 0 1-.1.443Z" fill="#72CF64"/><path d="M7.243 10.028a3.724 3.724 0 0 0-3.722 3.716.68.68 0 0 0 1.36.001c0-1.3 1.06-2.358 2.361-2.358a.68.68 0 1 0 0-1.357l.001-.002ZM21.518 9.862v1.097h-1.1a.49.49 0 1 0 0 .979h1.1v1.097a.49.49 0 0 0 .98 0v-1.098h1.1a.49.49 0 1 0 0-.978h-1.1V9.862a.49.49 0 0 0-.98 0ZM37.51 17.56h-1.1v-1.096a.49.49 0 0 0-.98 0v1.097h-1.099a.49.49 0 1 0 0 .978h1.1v1.098a.49.49 0 0 0 .98 0v-1.098h1.099a.49.49 0 1 0 0-.978ZM29.33 11.917a.34.34 0 0 0 .34-.34c0-.65.53-1.179 1.181-1.179a.34.34 0 1 0 0-.68 1.862 1.862 0 0 0-1.86 1.859c0 .188.151.34.34.34Z" fill="#72CF64"/><path d="M31.19 15.98a4.07 4.07 0 0 0 4.07-4.063 4.07 4.07 0 0 0-4.07-4.062 4.07 4.07 0 0 0-4.068 4.062 4.07 4.07 0 0 0 4.069 4.063Zm0-7.164a3.107 3.107 0 0 1 3.107 3.101 3.107 3.107 0 0 1-6.212 0 3.107 3.107 0 0 1 3.106-3.1ZM15.968 5.062a.34.34 0 0 0 .34-.34c0-.65.53-1.179 1.18-1.179a.34.34 0 1 0 0-.68 1.862 1.862 0 0 0-1.86 1.859c0 .187.152.34.34.34Z" fill="#72CF64"/><path d="M17.828 9.125a4.07 4.07 0 0 0 4.069-4.063 4.07 4.07 0 0 0-8.138 0 4.07 4.07 0 0 0 4.069 4.063Zm0-7.164a3.107 3.107 0 0 1 3.106 3.101 3.107 3.107 0 0 1-6.212 0 3.107 3.107 0 0 1 3.106-3.101Z" fill="#72CF64"/><path d="M11.128 30.403a2.3 2.3 0 0 0-2.297 2.293 2.292 2.292 0 0 0 2.297 2.293 2.3 2.3 0 0 0 2.297-2.293 2.292 2.292 0 0 0-2.297-2.293Zm0 3.058a.727.727 0 1 1 0-1.452.764.764 0 0 1 0 1.452ZM30.805 30.403a2.3 2.3 0 0 0-2.297 2.293 2.292 2.292 0 0 0 2.297 2.293 2.262 2.262 0 0 0 1.636-.66 2.248 2.248 0 0 0 .66-1.633 2.292 2.292 0 0 0-2.296-2.293Zm.325 2.998a.726.726 0 1 1-.325-1.392v-.016a.726.726 0 0 1 .765.742c0 .29-.173.552-.44.666ZM24.098 31.909h-6.89a.765.765 0 1 0 0 1.529h6.89a.765.765 0 1 0 0-1.529Z" stroke="#72CF64"/><path d="M35.223 23.982h-1.827l-.616-2.11a5.996 5.996 0 0 0-5.62-3.822H15.77a7.793 7.793 0 0 0 .893-3.626c0-4.311-3.513-7.819-7.83-7.819C4.512 6.605 1 10.113 1 14.424s3.5 7.806 7.808 7.819l-.64 1.77H6.15a1.935 1.935 0 0 0-1.332 3.332l1.634 1.556a3.21 3.21 0 0 0-.653 1.953v3.684a3.15 3.15 0 0 0 1.156 2.479V39.637a2.47 2.47 0 0 0 2.534 2.362h1.317l.052.001c.56 0 1.1-.215 1.506-.601.42-.398.663-.947.678-1.525v-2.127l15.503.05v1.779a2.477 2.477 0 0 0 2.527 2.415h1.316l.047.001a2.188 2.188 0 0 0 2.19-2.141v-2.79c.076-.068.15-.138.221-.214a3.2 3.2 0 0 0 .95-2.293v-3.693a3.207 3.207 0 0 0-.734-2.064l1.492-1.482a1.931 1.931 0 0 0 .045-2.754 1.943 1.943 0 0 0-1.377-.58Zm-32.91-9.558c0-3.589 2.924-6.509 6.518-6.509 3.595 0 6.519 2.92 6.519 6.509 0 1.16-.31 2.3-.896 3.293l.565.333-.528-.31a6.51 6.51 0 0 1-1.175 1.466l.417.447-.42-.446a6.585 6.585 0 0 1-2.45 1.447l.19.582-.19-.58a6.496 6.496 0 0 1-1.826.316l.017.612-.03-.654a4.55 4.55 0 0 1-.193.003c-3.594 0-6.519-2.92-6.519-6.508v-.001Zm7.076 10.73a.752.752 0 0 0 .089-.247l.96-2.684c.034-.073.07-.144.107-.215.236-.053.468-.116.699-.19a7.804 7.804 0 0 0 3.415-2.24H27.16a4.449 4.449 0 0 1 4.134 2.798l.713 2.39a.76.76 0 0 0 .114.382l.754 2.526a2.447 2.447 0 0 0-.18-.007c-1.6.045-3.498 0-5.673 0H8.908c-.145 0-.289.011-.43.031l.911-2.544Zm-3.536 1.09a.405.405 0 0 1 .276-.703h1.484l-.64 1.766-1.12-1.063Zm5.658 13.668a.66.66 0 0 1-.704.597H9.49a.95.95 0 0 1-1.004-.872v-1.94c.14.021.28.035.422.036l2.603.01v2.17Zm21.583-.061a.666.666 0 0 1-.705.611h-1.316a.95.95 0 0 1-.996-.886V37.8l2.634.01c.13-.005.257-.018.383-.038v2.078Zm1.194-5.243c.005.453-.176.888-.498 1.207-.28.306-.672.486-1.086.497l-3.257-.01a.763.763 0 0 0-.265-.001l-20.289-.065a1.633 1.633 0 0 1-1.577-1.667v-3.684A1.685 1.685 0 0 1 7.79 29.7c.282-.312.68-.495 1.102-.504l11.92.06c1.792-.045 4.104 0 6.21 0h5.695c.404.004.789.167 1.072.451.323.325.503.766.498 1.224v3.677Zm1.21-8.394-1.135 1.082-.522-1.785h1.382c.167-.001.316.103.375.26a.382.382 0 0 1-.1.443Z" stroke="#72CF64"/><path d="M7.243 10.028a3.724 3.724 0 0 0-3.722 3.716.68.68 0 0 0 1.36.001c0-1.3 1.06-2.358 2.361-2.358a.68.68 0 1 0 0-1.357l.001-.002ZM21.518 9.862v1.097h-1.1a.49.49 0 1 0 0 .979h1.1v1.097a.49.49 0 0 0 .98 0v-1.098h1.1a.49.49 0 1 0 0-.978h-1.1V9.862a.49.49 0 0 0-.98 0ZM37.51 17.56h-1.1v-1.096a.49.49 0 0 0-.98 0v1.097h-1.099a.49.49 0 1 0 0 .978h1.1v1.098a.49.49 0 0 0 .98 0v-1.098h1.099a.49.49 0 1 0 0-.978ZM29.33 11.917a.34.34 0 0 0 .34-.34c0-.65.53-1.179 1.181-1.179a.34.34 0 1 0 0-.68 1.862 1.862 0 0 0-1.86 1.859c0 .188.151.34.34.34Z" stroke="#72CF64"/><path d="M31.19 15.98a4.07 4.07 0 0 0 4.07-4.063 4.07 4.07 0 0 0-4.07-4.062 4.07 4.07 0 0 0-4.068 4.062 4.07 4.07 0 0 0 4.069 4.063Zm0-7.164a3.107 3.107 0 0 1 3.107 3.101 3.107 3.107 0 0 1-6.212 0 3.107 3.107 0 0 1 3.106-3.1ZM15.968 5.062a.34.34 0 0 0 .34-.34c0-.65.53-1.179 1.18-1.179a.34.34 0 1 0 0-.68 1.862 1.862 0 0 0-1.86 1.859c0 .187.152.34.34.34Z" stroke="#72CF64"/><path d="M17.828 9.125a4.07 4.07 0 0 0 4.069-4.063 4.07 4.07 0 0 0-8.138 0 4.07 4.07 0 0 0 4.069 4.063Zm0-7.164a3.107 3.107 0 0 1 3.106 3.101 3.107 3.107 0 0 1-6.212 0 3.107 3.107 0 0 1 3.106-3.101Z" stroke="#72CF64"/></svg>