<svg width="96" height="65" fill="none" xmlns="http://www.w3.org/2000/svg"><path d="M69.072 0c4.112 0 7.637 3.06 8.855 7.281a7.05 7.05 0 0 1 1.683-.217c3.866 0 7.025 3.142 7.025 6.989s-3.16 6.99-7.025 6.99a7.032 7.032 0 0 1-4.975-2.04c-1.553 1.324-3.477 2.112-5.561 2.112-5.118 0-9.292-4.736-9.292-10.557C59.782 4.738 63.953 0 69.072 0ZM26.926 0c5.118 0 9.293 4.738 9.293 10.556 0 5.818-4.175 10.557-9.293 10.557-2.084 0-4.007-.788-5.56-2.113a7.041 7.041 0 0 1-4.976 2.04c-3.865 0-7.024-3.142-7.024-6.99 0-3.846 3.159-6.988 7.024-6.988.577 0 1.146.085 1.683.217C19.292 3.06 22.814 0 26.926 0ZM48 .073c6.452 0 11.707 5.229 11.707 11.648 0 6.42-5.255 11.613-11.707 11.613-6.451 0-11.707-5.192-11.707-11.613C36.292 5.3 41.548.073 48 .073Zm0 2.294a9.356 9.356 0 0 0-9.366 9.356c0 5.161 4.18 9.32 9.366 9.32 5.187 0 9.366-4.159 9.366-9.32a9.356 9.356 0 0 0-9.366-9.356Zm21.073.11c-3.935 0-7.098 3.608-7.098 8.081 0 4.473 3.163 8.082 7.098 8.082 3.934 0 7.097-3.609 7.097-8.082 0-4.473-3.163-8.081-7.097-8.081Zm-42.146 0c-3.934 0-7.097 3.608-7.097 8.081 0 4.473 3.163 8.082 7.097 8.082 3.935 0 7.098-3.609 7.098-8.082 0-4.473-3.163-8.081-7.098-8.081ZM79.608 9.39c-.447 0-.872.104-1.28.218.024.309.038.632.038.947 0 2.566-.813 4.904-2.157 6.735.85.884 2.065 1.42 3.401 1.42 2.6 0 4.683-2.073 4.683-4.66-.019-2.854-2.486-4.593-4.683-4.66h-.002Zm-63.218 0a4.654 4.654 0 0 0-4.683 4.66 4.654 4.654 0 0 0 4.683 4.66c1.338 0 2.553-.535 3.401-1.42-1.344-1.833-2.157-4.17-2.157-6.735 0-.315.012-.638.038-.947-.44-.147-.906-.164-1.28-.218h-.002Zm58.72 11.614c2.74.738 5.198 1.36 7.316 2.294.632-.588 1.23-.665 1.648-.582 3.794 1.007 6.892 1.697 9 4.332C95.18 29.683 96 33.825 96 41.317c.004.438-.263.865-.658 1.055l-4.062 1.965c.014.788.037 1.555.037 2.402.005.438-.263.865-.658 1.056l-5.745 2.84c-.633.3-1.495-.12-1.647-.801-.9-3.998-1.343-6.303-1.683-7.827-.351 1.851-.83 4.931-1.792 9.684a1.2 1.2 0 0 1-.951.947 51.907 51.907 0 0 1-3.987.473c.036 1.291.073 2.61.073 4.042a1.19 1.19 0 0 1-.658 1.02l-7.024 3.494c-.623.3-1.478-.095-1.648-.765-.84-3.49-1.48-7.314-2.303-10.703-.991 4.55-1.73 9.379-2.453 12.996a1.198 1.198 0 0 1-.95.91c-7.19 1.191-16.591 1.191-23.78 0a1.2 1.2 0 0 1-.952-.91c-1.06-4.191-1.396-8.946-2.452-12.996-.93 3.953-1.623 7.632-2.304 10.703-.148.624-.888 1.035-1.501.838l-7.024-2.33a1.2 1.2 0 0 1-.805-1.092c0-1.86.054-3.574.109-5.207-1.395-.118-2.76-.265-4.025-.473-.47-.08-.87-.478-.95-.947-.963-4.753-1.441-7.83-1.793-9.684-.34 1.526-.784 3.829-1.682 7.827-.149.622-.889 1.034-1.501.837L5.486 48.78a1.2 1.2 0 0 1-.805-1.092c0-1.165.046-2.258.073-3.313L.803 43.1a1.2 1.2 0 0 1-.805-1.093c0-7.826.826-12.129 2.927-14.852 2.1-2.726 5.207-3.435 9-4.442.683-.119 1.152.277 1.683.62 2.111-.948 4.553-1.597 7.279-2.33.338-.08.713 0 .989.217 1.766 1.308 3.424 1.893 5.048 1.893 1.625 0 3.282-.585 5.049-1.893.383-.3.727-.306.987-.217 5.255 1.415 9.455 2.412 12.255 5.971.263.334.497.715.731 1.093 1.457.4 2.906.21 4.244-.036.194-.31.372-.63.585-.91 2.795-3.68 7-4.7 12.255-6.116.339-.079.713 0 .989.217 1.766 1.308 3.424 1.893 5.049 1.893 1.624 0 3.282-.585 5.048-1.893.374-.31.757-.315.99-.217h.003Zm-.147 2.402c-1.9 1.281-3.88 2.04-5.891 2.04s-3.991-.759-5.891-2.04c-2.986.804-5.398 1.465-7.317 2.475 6.152 1.664 11.01 2.933 14.268 7.099 2.747 3.515 4.17 8.888 4.61 17.765a50.859 50.859 0 0 0 2.888-.328c.8-4.045 1.311-7.08 1.648-8.846.303-1.789.62-2.99 2.233-3.567 1.628.26 1.906 1.646 2.232 2.912.31 1.32.805 3.911 1.464 6.954l3.731-1.82c-.069-9.737-1.275-14.871-3.439-17.62-2.153-2.736-5.548-3.679-10.536-5.024Zm-42.145 0c-1.9 1.281-3.88 2.04-5.892 2.04-2.01 0-3.99-.759-5.89-2.04-4.989 1.343-8.378 2.288-10.537 5.134-2.162 2.848-3.326 8.225-3.401 18.348l3.62 1.202c.7-3.21 1.22-5.808 1.537-7.172.322-1.591.707-2.51 2.233-2.912 1.773.396 1.938 2.22 2.232 3.567.337 1.766.85 4.8 1.648 8.847.926.134 1.892.24 2.889.327.48-8.747 1.919-14.098 4.574-17.62 3.257-4.322 8.168-5.576 14.341-7.244-1.925-1-4.346-1.665-7.354-2.475v-.002Zm-22.976 2.33c-2.289.68-3.926 1.384-5.048 2.84-1.46 1.892-2.298 5.65-2.38 12.595l2.309.759c.842-4.745 1.1-10.981 3.911-14.81.376-.518.838-.98 1.206-1.382l.002-.002Zm76.462.035c.379.36.721.771 1.06 1.202 3.245 4.347 3.48 9.812 3.951 14.853l2.304-1.202c-.071-6.724-.916-10.293-2.379-12.121-1.095-1.37-2.705-2.065-4.938-2.73l.002-.002Zm-31.134 2.33c-2.323 1.606-4.73 2.547-7.17 2.547-2.443 0-4.847-.943-7.171-2.547-6.163 1.67-10.378 2.835-13.098 6.444-2.728 3.619-4.21 10.241-4.281 22.934l4.938 1.638c.903-4.154 1.542-7.388 1.938-9.102.36-1.757.75-2.928 2.452-3.35 2.036.401 2.166 2.635 2.452 4.15.414 2.204 1.04 5.937 2.049 11.067 6.533.984 14.905.984 21.438 0 1.01-5.13 1.633-8.863 2.05-11.067.35-2.016.545-3.552 2.451-4.15 1.809.202 2.122 2.026 2.453 3.35.388 1.68 1.032 4.909 1.902 8.92l4.975-2.513c-.062-12.187-1.515-18.534-4.243-22.024-2.714-3.47-6.968-4.627-13.133-6.3l-.002.003Z" fill="#AB24A2"/></svg>