<svg width="91" height="91" fill="none" xmlns="http://www.w3.org/2000/svg"><g clip-path="url(#a)" fill="#AB24A2"><path d="M13.327 13.309a45.52 45.52 0 0 0 0 64.361 45.495 45.495 0 0 0 64.346 0 45.517 45.517 0 0 0 0-64.361 45.546 45.546 0 0 0-64.346 0Zm29.326-1.956V2.948a42.935 42.935 0 0 1 4.266-.071v8.476a33.946 33.946 0 0 0-4.266.093v-.093Zm-9.142 19L29.529 18.55a31.461 31.461 0 0 1 3.733-1.898l7.465 10.111a19.264 19.264 0 0 0-7.216 3.59Zm11.986-1.343a16.472 16.472 0 0 1 16.472 16.476 16.473 16.473 0 1 1-32.945 0 16.485 16.485 0 0 1 16.473-16.475v-.001Zm-14.268 3.47a19.278 19.278 0 0 0 .177 26.19L27.44 71.086l-.384-.27a31.786 31.786 0 0 1-6.867-6.869 31.13 31.13 0 0 1 0-36.87 31.786 31.786 0 0 1 6.867-6.869l4.173 12.273v-.001Zm2.488 28.295a19.27 19.27 0 0 0 6.676 3.335l-7.11 10.225a31.703 31.703 0 0 1-3.391-1.692l3.825-11.868Zm9.726 3.91a19.296 19.296 0 0 0 19.792-11.561l13.052-1.863A31.152 31.152 0 0 1 70.9 63.804a31.875 31.875 0 0 1-6.954 6.983 31.146 31.146 0 0 1-27.89 4.564l7.388-10.668v.002Zm20.81-14.578c.692-2.795.749-5.711.17-8.533l12.357 1.87a31.42 31.42 0 0 1-.064 4.885l-12.462 1.778h-.002Zm-.712-11.512a19.35 19.35 0 0 0-18.044-12.43c-.548 0-1.089 0-1.629.072l-7.84-10.617a31.139 31.139 0 0 1 27.904 4.566 31.771 31.771 0 0 1 7.159 7.296 31.176 31.176 0 0 1 5.331 13.027l-12.881-1.913v-.001ZM39.809 79.618v8.128a42.652 42.652 0 0 1-26.304-14.242 42.675 42.675 0 0 1 0-56.036A42.655 42.655 0 0 1 39.81 3.225v8.128c.002.16.031.319.085.47a34.066 34.066 0 0 0-14.482 6.108 34.658 34.658 0 0 0-7.472 7.48 33.91 33.91 0 0 0 0 40.157 34.59 34.59 0 0 0 7.472 7.473 34.066 34.066 0 0 0 14.482 6.108 1.406 1.406 0 0 0-.085.47v-.001Zm7.11 0v8.476h-1.422c-.946 0-1.898-.042-2.844-.107v-8.498c.952.078 1.906.12 2.844.12h1.422v.009Zm28.743-3.962a42.449 42.449 0 0 1-25.9 12.259v-8.297a1.5 1.5 0 0 0 0-.27 34.034 34.034 0 0 0 15.84-6.307 34.672 34.672 0 0 0 7.572-7.595 34.038 34.038 0 0 0 .24-39.559 34.543 34.543 0 0 0-7.82-7.943 34.028 34.028 0 0 0-15.832-6.32 1.5 1.5 0 0 0 0-.27v-8.3a42.653 42.653 0 0 1 27.83 14.364 42.673 42.673 0 0 1-1.93 58.24v-.002Z"/><path d="M45.497 57.789a12.303 12.303 0 0 0 0-24.605 12.297 12.297 0 0 0-12.3 12.302 12.318 12.318 0 0 0 12.3 12.303Zm0-21.76a9.454 9.454 0 0 1 9.454 9.456 9.458 9.458 0 0 1-9.454 9.456 9.454 9.454 0 0 1-6.684-16.142 9.459 9.459 0 0 1 6.684-2.77Z"/></g><defs><clipPath id="a"><path fill="#fff" d="M0 0h91v91H0z"/></clipPath></defs></svg>