<svg width="42" height="66" fill="none" xmlns="http://www.w3.org/2000/svg"><path d="M16.403 0c.544 0 1.065.215 1.45.598.384.383.6.903.6 1.444v10.212h12.303V2.042c0-.541.216-1.06.6-1.444a2.054 2.054 0 0 1 2.9 0c.384.383.6.903.6 1.444v10.212h4.101c.544 0 1.065.215 1.45.598.384.383.6.903.6 1.444v12.255c0 3.791-1.512 7.428-4.203 10.109a14.381 14.381 0 0 1-10.15 4.187c-.007 1.773-.04 3.452-.163 4.984-.168 2.1-.517 4.097-1.3 5.816a8.522 8.522 0 0 1-3.978 4.2c-1.837.93-4.117 1.34-6.86 1.34-4.093 0-6.603 1.347-8.095 2.932A7.835 7.835 0 0 0 4.1 65.356H0c0-2.517.951-5.584 3.268-8.04 2.366-2.499 6.004-4.215 11.085-4.215 2.382 0 3.944-.36 4.994-.894.989-.503 1.64-1.226 2.108-2.247.496-1.086.792-2.536.943-4.452.111-1.389.144-2.933.152-4.66a14.381 14.381 0 0 1-10.146-4.19A14.268 14.268 0 0 1 8.2 26.551V14.297c0-.542.216-1.062.601-1.445a2.054 2.054 0 0 1 1.45-.598h4.1V2.042c0-.541.217-1.06.601-1.444A2.055 2.055 0 0 1 16.403 0Zm-4.1 16.339V26.55c0 2.708 1.08 5.305 3.002 7.22a10.272 10.272 0 0 0 7.25 2.992h4.1c2.719 0 5.326-1.076 7.249-2.991a10.192 10.192 0 0 0 3.003-7.221V16.339H12.302Z" fill="#fff"/></svg>