<svg width="64" height="71" fill="none" xmlns="http://www.w3.org/2000/svg"><path d="M17.519 50.917a3.975 3.975 0 0 0-3.973 3.971 3.972 3.972 0 1 0 3.973-3.97Zm0 5.295a1.257 1.257 0 1 1 0-2.514 1.324 1.324 0 0 1 0 2.514ZM51.554 50.917a3.975 3.975 0 0 0-3.973 3.971 3.972 3.972 0 0 0 3.973 3.972 3.91 3.91 0 0 0 2.83-1.144 3.895 3.895 0 0 0 1.143-2.828 3.971 3.971 0 0 0-3.973-3.97Zm.562 5.192a1.258 1.258 0 1 1-.562-2.411v-.027a1.256 1.256 0 0 1 1.325 1.284c0 .502-.3.956-.763 1.154ZM39.953 53.525H28.035a1.324 1.324 0 1 0 0 2.648h11.918a1.325 1.325 0 0 0 0-2.648Z" fill="#fff"/><path d="M59.196 39.798h-3.16l-1.066-3.654a10.365 10.365 0 0 0-9.72-6.619H25.547a13.508 13.508 0 0 0 1.546-6.279c0-7.466-6.077-13.54-13.546-13.54C6.076 9.706 0 15.78 0 23.246c0 7.466 6.056 13.519 13.507 13.54l-1.11 3.065H8.91a3.347 3.347 0 0 0-3.34 3.404 3.354 3.354 0 0 0 1.036 2.367l2.826 2.695a5.563 5.563 0 0 0-1.129 3.38v6.382a5.46 5.46 0 0 0 2 4.292l-.002.01v4.527a4.28 4.28 0 0 0 4.384 4.09h2.278l.091.002a3.779 3.779 0 0 0 3.776-3.682v-3.682l26.817.086v3.08a4.293 4.293 0 0 0 4.37 4.183h2.278l.08.001a3.784 3.784 0 0 0 3.787-3.708v-4.832c.134-.116.262-.239.385-.369a5.543 5.543 0 0 0 1.642-3.97v-6.395a5.557 5.557 0 0 0-1.27-3.575l2.582-2.568a3.348 3.348 0 0 0-2.305-5.772ZM2.27 23.246c0-6.215 5.058-11.27 11.276-11.27 6.217 0 11.276 5.055 11.276 11.27 0 2.01-.536 3.983-1.55 5.704l.977.576-.914-.536a11.273 11.273 0 0 1-2.032 2.537l.721.775-.725-.773a11.384 11.384 0 0 1-4.237 2.507l.327 1.007-.329-1.006a11.23 11.23 0 0 1-3.158.55l.03 1.058-.053-1.133c-.11.005-.221.006-.333.006-6.218 0-11.276-5.056-11.276-11.27v-.002Zm12.242 18.582c.074-.13.127-.275.152-.428l1.662-4.647c.058-.127.12-.25.185-.373.407-.092.81-.2 1.208-.33a13.496 13.496 0 0 0 5.907-3.877H45.25a7.688 7.688 0 0 1 7.151 4.844l1.233 4.138c.007.243.078.469.197.663l1.305 4.373a4.296 4.296 0 0 0-.312-.012c-2.767.079-6.05 0-9.812 0H13.68c-.251 0-.5.02-.743.054l1.575-4.405Zm-6.118 1.888a.7.7 0 0 1 .477-1.218h2.568l-1.106 3.058-1.94-1.84Zm9.788 23.668a1.14 1.14 0 0 1-1.219 1.034h-2.278a1.644 1.644 0 0 1-1.736-1.51v-3.359c.241.037.485.06.73.062l4.503.016v3.757Zm37.332-.106a1.153 1.153 0 0 1-1.219 1.06h-2.277a1.643 1.643 0 0 1-1.723-1.536v-3.073l4.557.016c.223-.008.444-.03.662-.064v3.597Zm2.066-9.08a2.905 2.905 0 0 1-.861 2.091 2.647 2.647 0 0 1-1.88.861l-5.633-.018a1.328 1.328 0 0 0-.46-.002l-35.093-.112a2.823 2.823 0 0 1-2.729-2.886v-6.38a2.918 2.918 0 0 1 .822-2.053 2.653 2.653 0 0 1 1.907-.872l20.619.105c3.098-.078 7.098 0 10.74 0h9.852a2.647 2.647 0 0 1 1.855.781c.558.563.868 1.325.86 2.118v6.367Zm2.093-14.535-1.965 1.873-.902-3.09h2.39a.69.69 0 0 1 .65.449.663.663 0 0 1-.173.768Z" fill="#fff"/><path d="M10.799 15.634c-3.55 0-6.439 2.886-6.439 6.435a1.176 1.176 0 0 0 2.352.002 4.09 4.09 0 0 1 4.085-4.084 1.176 1.176 0 1 0 0-2.35l.002-.003ZM35.49 15.346v1.9h-1.9a.848.848 0 0 0 0 1.695h1.9v1.9a.847.847 0 1 0 1.695 0v-1.9h1.903a.848.848 0 0 0 0-1.695h-1.903v-1.9a.847.847 0 1 0-1.695 0ZM63.152 28.679H61.25v-1.9a.847.847 0 1 0-1.695 0v1.9h-1.901a.848.848 0 0 0 0 1.694h1.9v1.9a.847.847 0 1 0 1.696 0v-1.9h1.902a.848.848 0 0 0 0-1.694ZM49.004 18.906a.588.588 0 0 0 .589-.589c0-1.125.916-2.042 2.042-2.042a.588.588 0 1 0 0-1.177 3.222 3.222 0 0 0-3.22 3.218c0 .325.264.588.59.588v.002Z" fill="#fff"/><path d="M52.222 25.94c3.88 0 7.038-3.155 7.038-7.034 0-3.88-3.157-7.035-7.038-7.035-3.88 0-7.038 3.156-7.038 7.035s3.157 7.034 7.038 7.034Zm0-12.405a5.378 5.378 0 0 1 5.373 5.37c0 2.961-2.41 5.371-5.373 5.371a5.378 5.378 0 0 1-5.373-5.37c0-2.96 2.41-5.37 5.373-5.37ZM25.89 7.035a.588.588 0 0 0 .589-.589c0-1.125.915-2.042 2.041-2.042a.588.588 0 1 0 0-1.177 3.222 3.222 0 0 0-3.219 3.218c0 .325.264.588.589.588v.002Z" fill="#fff"/><path d="M29.108 14.07c3.88 0 7.037-3.156 7.037-7.035C36.145 3.155 32.99 0 29.108 0S22.07 3.156 22.07 7.035s3.157 7.034 7.038 7.034Zm0-12.406a5.378 5.378 0 0 1 5.373 5.37c0 2.961-2.41 5.371-5.373 5.371a5.378 5.378 0 0 1-5.373-5.37c0-2.961 2.41-5.37 5.373-5.37Z" fill="#fff"/></svg>