<svg width="53" height="53" fill="none" xmlns="http://www.w3.org/2000/svg"><path d="M26.5 10.6h-7.95a2.65 2.65 0 0 0-2.65 2.65v26.5a2.65 2.65 0 1 0 5.3 0V31.8h5.3a10.6 10.6 0 0 0 0-21.2Zm0 15.9h-5.3V15.9h5.3a5.3 5.3 0 0 1 0 10.6ZM45.05 0H7.95A7.95 7.95 0 0 0 0 7.95v37.1A7.95 7.95 0 0 0 7.95 53h37.1A7.95 7.95 0 0 0 53 45.05V7.95A7.95 7.95 0 0 0 45.05 0Zm2.65 45.05a2.65 2.65 0 0 1-2.65 2.65H7.95a2.65 2.65 0 0 1-2.65-2.65V7.95A2.65 2.65 0 0 1 7.95 5.3h37.1a2.65 2.65 0 0 1 2.65 2.65v37.1Z" fill="#fff"/></svg>