<svg width="44" height="65" fill="none" xmlns="http://www.w3.org/2000/svg"><mask id="a" maskUnits="userSpaceOnUse" x="0" y="0" width="44" height="65" fill="#000"><path fill="#fff" d="M0 0h44v65H0z"/><path fill-rule="evenodd" clip-rule="evenodd" d="M42.999 34.783V59.92H43a4.385 4.385 0 0 1-4.378 4.38H5.38A4.385 4.385 0 0 1 1 59.92V18.797c0-4.122 3.35-7.475 7.472-7.477h.043V8.106c0-1.054.856-1.912 1.91-1.912h.362V1.791c0-.436.355-.791.791-.791h6.063c.437 0 .79.355.79.791v4.405h.364c1.053 0 1.91.857 1.91 1.911v3.215h.33a9.576 9.576 0 0 1 7.074 3.134L40.364 27.96A10.132 10.132 0 0 1 43 34.783Zm-26.151-32.2h-4.482v3.611h4.482V2.583Zm-6.426 5.194a.33.33 0 0 0-.33.329v3.214h9.03V8.106a.328.328 0 0 0-.329-.33h-8.371Zm10.613 5.126H8.47a5.897 5.897 0 0 0-5.888 5.894v22.56h38.837v-6.574c0-2.135-.79-4.18-2.224-5.76L26.939 15.518a7.991 7.991 0 0 0-5.904-2.615ZM5.38 62.72h33.242a2.802 2.802 0 0 0 2.796-2.8V42.938H2.583V59.92a2.8 2.8 0 0 0 2.796 2.8Zm25.876-25.207a3.873 3.873 0 0 1-2.84-1.232l-8.684-9.303a3.894 3.894 0 0 1 .186-5.495 3.885 3.885 0 0 1 5.49.186l8.685 9.303a3.894 3.894 0 0 1-.186 5.496 3.87 3.87 0 0 1-2.651 1.045Zm-8.687-15.495c-.563 0-1.128.207-1.571.62h.001a2.29 2.29 0 0 0-.73 1.607 2.289 2.289 0 0 0 .619 1.652L29.57 35.2a2.304 2.304 0 1 0 3.366-3.148l-8.684-9.303a2.301 2.301 0 0 0-1.684-.73Z"/></mask><path fill-rule="evenodd" clip-rule="evenodd" d="M42.999 34.783V59.92H43a4.385 4.385 0 0 1-4.378 4.38H5.38A4.385 4.385 0 0 1 1 59.92V18.797c0-4.122 3.35-7.475 7.472-7.477h.043V8.106c0-1.054.856-1.912 1.91-1.912h.362V1.791c0-.436.355-.791.791-.791h6.063c.437 0 .79.355.79.791v4.405h.364c1.053 0 1.91.857 1.91 1.911v3.215h.33a9.576 9.576 0 0 1 7.074 3.134L40.364 27.96A10.132 10.132 0 0 1 43 34.783Zm-26.151-32.2h-4.482v3.611h4.482V2.583Zm-6.426 5.194a.33.33 0 0 0-.33.329v3.214h9.03V8.106a.328.328 0 0 0-.329-.33h-8.371Zm10.613 5.126H8.47a5.897 5.897 0 0 0-5.888 5.894v22.56h38.837v-6.574c0-2.135-.79-4.18-2.224-5.76L26.939 15.518a7.991 7.991 0 0 0-5.904-2.615ZM5.38 62.72h33.242a2.802 2.802 0 0 0 2.796-2.8V42.938H2.583V59.92a2.8 2.8 0 0 0 2.796 2.8Zm25.876-25.207a3.873 3.873 0 0 1-2.84-1.232l-8.684-9.303a3.894 3.894 0 0 1 .186-5.495 3.885 3.885 0 0 1 5.49.186l8.685 9.303a3.894 3.894 0 0 1-.186 5.496 3.87 3.87 0 0 1-2.651 1.045Zm-8.687-15.495c-.563 0-1.128.207-1.571.62h.001a2.29 2.29 0 0 0-.73 1.607 2.289 2.289 0 0 0 .619 1.652L29.57 35.2a2.304 2.304 0 1 0 3.366-3.148l-8.684-9.303a2.301 2.301 0 0 0-1.684-.73Z" fill="#fff"/><path d="M42.999 59.92h-.5v1.205l.853-.85-.353-.355Zm.001 0h.5v-1.206l-.853.851.353.354ZM8.472 11.32v-.5.5Zm.043 0v.5h.5v-.5h-.5Zm2.272-5.126v.5h.5v-.5h-.5Zm7.645.002h-.5v.5h.5v-.5Zm2.273 5.126h-.5v.5h.5v-.5Zm7.404 3.134.37-.336-.37.336ZM40.364 27.96l-.37.336.37-.336ZM12.366 2.583v-.5h-.5v.5h.5Zm4.482 0h.5v-.5h-.5v.5Zm-4.482 3.611h-.5v.5h.5v-.5Zm4.482 0v.5h.5v-.5h-.5Zm-6.755 5.126h-.5v.5h.5v-.5Zm9.03 0v.5h.5v-.5h-.5ZM2.58 41.358h-.5v.5h.5v-.5Zm38.836 0v.5h.5v-.5h-.5Zm-2.223-12.334-.37.336.37-.337ZM26.939 15.518l.37-.336-.37.336Zm14.478 27.42h.5v-.5h-.5v.5Zm-38.834 0v-.5h-.5v.5h.5Zm25.831-6.657-.365.341.365-.34Zm-8.683-9.303.365-.341-.365.34Zm5.676-5.309-.366.341.366-.34Zm8.685 9.303.366-.34-.366.34Zm-.186 5.496.341.365-.341-.365Zm-12.909-13.83-.341-.365-.927.866h1.268v-.5Zm.001 0 .342.366.925-.865h-1.267v.5Zm-.73 1.607.5.017-.5-.017Zm.619 1.652-.366.341.366-.341ZM29.57 35.2l-.365.341.365-.34Zm3.256.11-.342-.365.342.365Zm.11-3.258-.366.341.366-.341Zm-8.684-9.303.366-.341-.366.34ZM43.5 59.92V34.782h-1V59.92h1Zm-.852-.356-.002.002.707.708.001-.002-.706-.708Zm-4.025 5.236c2.69 0 4.878-2.19 4.878-4.882h-1c0 2.14-1.74 3.882-3.878 3.882v1Zm-33.243 0h33.243v-1H5.38v1ZM.5 59.92c0 2.69 2.189 4.88 4.88 4.88v-1a3.885 3.885 0 0 1-3.88-3.88h-1Zm0-41.124V59.92h1V18.797h-1Zm7.972-7.977C4.074 10.822.5 14.4.5 18.797h1c0-3.846 3.126-6.975 6.972-6.977v-1Zm.043 0h-.043v1h.043v-1Zm-.5-2.714v3.214h1V8.106h-1Zm2.41-2.412a2.413 2.413 0 0 0-2.41 2.412h1c0-.778.633-1.412 1.41-1.412v-1Zm.362 0h-.362v1h.362v-1Zm-.5-3.903v4.403h1V1.791h-1ZM11.578.5c-.713 0-1.29.579-1.29 1.291h1c0-.16.13-.291.29-.291v-1Zm6.063 0h-6.063v1h6.063v-1Zm1.29 1.291c0-.712-.577-1.291-1.29-1.291v1c.16 0 .29.13.29.291h1Zm0 4.405V1.79h-1v4.405h1Zm-.136-.5h-.363v1h.363v-1Zm2.41 2.411c0-1.33-1.08-2.411-2.41-2.411v1c.776 0 1.41.633 1.41 1.411h1Zm0 3.215V8.107h-1v3.215h1Zm-.17-.5h-.33v1h.33v-1Zm7.444 3.298a10.076 10.076 0 0 0-7.444-3.298v1a9.077 9.077 0 0 1 6.704 2.97l.74-.672Zm12.256 13.504L28.48 14.12l-.741.672 12.255 13.504.74-.672Zm2.764 7.16c0-2.654-.983-5.197-2.765-7.16l-.74.672a9.632 9.632 0 0 1 2.505 6.487h1ZM12.366 3.082h4.482v-1h-4.482v1Zm.5 3.111V2.583h-1v3.611h1Zm3.982-.5h-4.482v1h4.482v-1Zm-.5-3.111v3.611h1V2.583h-1Zm-5.755 5.523a.17.17 0 0 1-.171.17v-1a.83.83 0 0 0-.83.83h1Zm0 3.214V8.106h-1v3.214h1Zm8.53-.5h-9.03v1h9.03v-1Zm-.5-2.714v3.214h1V8.106h-1Zm.17.17a.172.172 0 0 1-.17-.17h1c0-.458-.371-.83-.83-.83v1Zm-8.371 0h8.371v-1h-8.371v1Zm-1.953 5.127h12.566v-1H8.47v1Zm-5.388 5.394a5.397 5.397 0 0 1 5.388-5.394v-1c-3.523 0-6.388 2.868-6.388 6.394h1Zm0 22.56v-22.56h-1v22.56h1Zm38.337-.5H2.58v1h38.836v-1Zm-.5-6.074v6.574h1v-6.574h-1Zm-2.094-5.424a8.052 8.052 0 0 1 2.093 5.424h1c0-2.259-.835-4.425-2.353-6.097l-.74.673ZM26.569 15.855l12.255 13.504.74-.673L27.31 15.182l-.74.673Zm-5.534-2.452c2.102 0 4.12.894 5.534 2.452l.74-.673a8.491 8.491 0 0 0-6.274-2.779v1ZM38.621 62.22H5.379v1h33.242v-1Zm2.296-2.3c0 1.268-1.031 2.3-2.296 2.3v1a3.302 3.302 0 0 0 3.296-3.3h-1Zm0-16.982V59.92h1V42.938h-1Zm-38.334.5h38.834v-1H2.583v1Zm.5 16.482V42.938h-1V59.92h1Zm2.296 2.3a2.3 2.3 0 0 1-2.296-2.3h-1a3.3 3.3 0 0 0 3.296 3.3v-1Zm22.67-25.598a4.373 4.373 0 0 0 3.206 1.391v-1c-.908 0-1.81-.36-2.475-1.073l-.731.682Zm-8.684-9.303 8.684 9.303.73-.682-8.683-9.303-.73.682Zm.21-6.201a4.394 4.394 0 0 0-.21 6.201l.731-.682a3.394 3.394 0 0 1 .163-4.789l-.683-.73Zm6.198.21a4.386 4.386 0 0 0-6.197-.21l.683.73a3.386 3.386 0 0 1 4.782.162l.732-.682Zm8.685 9.303-8.685-9.303-.731.683 8.685 9.303.73-.683Zm-.21 6.202a4.394 4.394 0 0 0 .21-6.202l-.731.683a3.394 3.394 0 0 1-.163 4.788l.683.73Zm-2.993 1.18a4.37 4.37 0 0 0 2.992-1.18l-.683-.73a3.37 3.37 0 0 1-2.31.91v1Zm-9.917-15.009a1.796 1.796 0 0 1 1.23-.486v-1c-.685 0-1.373.252-1.912.755l.682.731Zm-.34-.865h-.001v1h.001v-1Zm-.23 2.123a1.79 1.79 0 0 1 .572-1.258l-.683-.73a2.79 2.79 0 0 0-.888 1.954l1 .034Zm.484 1.294c-.33-.354-.5-.811-.484-1.294l-1-.034a2.789 2.789 0 0 0 .753 2.01l.731-.682Zm8.684 9.303-8.684-9.303-.73.682 8.683 9.303.73-.682Zm2.548.086c-.727.68-1.87.64-2.548-.086l-.731.682a2.804 2.804 0 0 0 3.962.135l-.683-.73Zm.086-2.552a1.81 1.81 0 0 1-.086 2.552l.683.73a2.81 2.81 0 0 0 .134-3.964l-.73.682Zm-8.683-9.303 8.683 9.303.731-.682-8.683-9.303-.731.682Zm-1.319-.572c.483 0 .964.193 1.32.572l.73-.683a2.8 2.8 0 0 0-2.05-.889v1Z" fill="#fff" mask="url(#a)"/></svg>