<svg width="58" height="58" fill="none" xmlns="http://www.w3.org/2000/svg"><path d="M7.733 25.133h4.834v1.934H7.733v-1.934ZM7.733 48.333H17.4v1.934H7.733v-1.934ZM7.733 44.467h5.8V46.4h-5.8v-1.933ZM31.9 25.133h6.767v1.934H31.9v-1.934ZM30.933 44.467h5.8V46.4h-5.8v-1.933ZM30.933 48.333h7.734v1.934h-7.734v-1.934Z" fill="#fff"/><path d="M55.1 32.867h-1.933v-4.834c0-1.595-1.305-2.9-2.9-2.9h-1.934a3.08 3.08 0 0 0-1.135.23 36.85 36.85 0 0 0-7.565-11.262v-4.036l1.087-1.087a.981.981 0 0 1 .29-.205l3.25 6.5a2.07 2.07 0 0 0 2.78.93 2.06 2.06 0 0 0 1.123-2.114l-.7-5.607a2.916 2.916 0 0 0 1.631-3.77A2.91 2.91 0 0 0 46.4 2.9H29.967A3.862 3.862 0 0 0 26.1 6.767v.966c0 1.596 1.305 2.9 2.9 2.9h.967v3.468l-.882.882A11.54 11.54 0 0 0 20.3 9.714V2.9c0-1.595-1.305-2.9-2.9-2.9h-3.867a2.908 2.908 0 0 0-2.9 2.9v6.803C4.628 10.21.013 15.237 0 21.267V55.1C0 56.695 1.305 58 2.9 58h52.2c1.595 0 2.9-1.305 2.9-2.9V35.767c0-1.596-1.305-2.9-2.9-2.9Zm-7.733-4.834a.97.97 0 0 1 .966-.966h1.934a.97.97 0 0 1 .966.966v4.834h-3.866v-4.834Zm-1.148-13.582a.125.125 0 0 1-.194 0c-.012-.012-.024-.024-.024-.036L43.126 8.7h2.417l.7 5.643a.114.114 0 0 1-.024.108ZM29 8.7a.97.97 0 0 1-.967-.967v-.966a1.94 1.94 0 0 1 1.934-1.934H46.4a.97.97 0 0 1 .967.967.97.97 0 0 1-.967.967h-5.002c-.774 0-1.51.301-2.054.846L38.257 8.7H29Zm8.7 1.933v2.9h-5.8v-2.9h5.8ZM12.567 2.9a.97.97 0 0 1 .966-.967H17.4a.97.97 0 0 1 .967.967v1.933h-5.8V2.9Zm0 3.867h5.8v2.9h-5.8v-2.9Zm11.6 16.288a20.466 20.466 0 0 0-.967 6.223v8.169a1.939 1.939 0 0 1-2.9-1.667V22.234a1.94 1.94 0 0 1 1.933-1.933 1.94 1.94 0 0 1 1.934 1.933v.822Zm-1.934-4.688a3.862 3.862 0 0 0-3.866 3.866v13.534a3.862 3.862 0 0 0 3.866 3.866c.326 0 .653-.036.967-.12v3.166l-2.489-.676a5.82 5.82 0 0 1-4.278-5.595V24.652a6.287 6.287 0 0 0-6.284-6.284 6.286 6.286 0 0 0-6.283 6.284v26.582c0 1.596 1.304 2.9 2.9 2.9H23.2v.967c0 .326.06.653.169.967H2.9a.97.97 0 0 1-.967-.967V21.267A9.665 9.665 0 0 1 11.6 11.6h7.733a9.622 9.622 0 0 1 8.399 4.882 20.188 20.188 0 0 0-2.32 3.553 3.862 3.862 0 0 0-3.179-1.667v-.001Zm-2.03 25.495 2.996.822V52.2H6.767a.97.97 0 0 1-.967-.967V24.651a4.348 4.348 0 0 1 4.35-4.351 4.348 4.348 0 0 1 4.351 4.35v11.745a7.744 7.744 0 0 0 5.703 7.467h-.001ZM26.1 56.067a.97.97 0 0 1-.967-.967V29.278a18.273 18.273 0 0 1 5.377-12.99l.822-.821h6.924A34.975 34.975 0 0 1 45.7 26.813a2.863 2.863 0 0 0-.279 1.22v4.76a37.606 37.606 0 0 0-3.637-9.569l-.76-1.402a2.904 2.904 0 0 0-2.55-1.51H34.8c-4.265 0-7.733 3.468-7.733 7.733v23.2c0 1.596 1.304 2.9 2.9 2.9H40.6v.967c0 .326.06.653.169.967H26.1v-.012Zm14.5-20.3V52.2H29.967a.97.97 0 0 1-.967-.967v-23.2c0-3.201 2.598-5.8 5.8-5.8h3.686c.35 0 .676.194.846.507l.76 1.402a36 36 0 0 1 3.373 8.725 2.909 2.909 0 0 0-2.864 2.9H40.6ZM56.067 55.1a.97.97 0 0 1-.967.967H43.5a.97.97 0 0 1-.967-.967V35.767a.97.97 0 0 1 .967-.967h11.6a.97.97 0 0 1 .967.967V55.1Z" fill="#fff"/><path d="M45.433 37.7h7.734v1.933h-7.734V37.7ZM51.233 51.233h1.934v1.934h-1.934v-1.934ZM45.433 51.233H49.3v1.934h-3.867v-1.934ZM49.3 41.567a3.862 3.862 0 0 0-3.867 3.866A3.863 3.863 0 0 0 49.3 49.3a3.863 3.863 0 0 0 3.867-3.867 3.862 3.862 0 0 0-3.867-3.866Zm0 5.8a1.94 1.94 0 0 1-1.933-1.934A1.94 1.94 0 0 1 49.3 43.5a1.94 1.94 0 0 1 1.933 1.933 1.94 1.94 0 0 1-1.933 1.934Z" fill="#fff"/></svg>