<svg width="64" height="61" fill="none" xmlns="http://www.w3.org/2000/svg"><g clip-path="url(#a)" fill="#fff"><path d="M16.94 25.629c.117-.032.228-.084.329-.15l8.964-4.073c.138-.035.267-.095.382-.175l9.062-4.119c.017-.007.034-.014.05-.023l9.17-4.168.05-.023 9.11-4.142c1.525-.692 2.555-2.125 2.704-3.76.149-1.636-.609-3.222-1.986-4.165a4.803 4.803 0 0 0-4.688-.405L38.919 5.508l-.052.025-18.22 8.291a1.153 1.153 0 0 0-.55.25l-8.53 3.88a1.095 1.095 0 0 0-.465.213L.889 22.813a1.156 1.156 0 0 0-.525.298 1.098 1.098 0 0 0-.325 1.105v35.301c0 .616.511 1.114 1.141 1.114H9.1c.314.018.622-.09.851-.302.23-.211.359-.504.359-.812V28.643l6.631-3.014h-.001Zm1.663-8.42-2.846 6.516-5.928 2.698 2.835-6.511L18.6 17.21l.002-.001Zm9.282-4.225-2.831 6.51-6.206 2.824 2.835-6.511 6.202-2.823Zm9.296-4.23-2.842 6.514-6.175 2.81 2.816-6.502 6.2-2.821Zm9.223-4.197-2.831 6.51-6.138 2.793 2.845-6.517 6.126-2.788-.002.002Zm4.643-2.113a2.48 2.48 0 0 1 2.313.3 2.353 2.353 0 0 1 .989 2.063A2.366 2.366 0 0 1 53.1 6.731l-6.453 2.937 2.845-6.516 1.555-.708h-.001ZM9.575 21.316 6.74 27.828l-2.034.925-2.053-4.287 6.923-3.15h-.001ZM8.027 58.404H2.32V29.033l.798 1.67a1.127 1.127 0 0 0 1.028.644c.16 0 .316-.038.456-.11l3.424-1.557v28.724Z"/><path d="M25.21 44.11c-.907 0-1.778.352-2.42.978a3.295 3.295 0 0 0-1.003 2.361 3.3 3.3 0 0 0 1.003 2.362 3.468 3.468 0 0 0 2.42.979c.908 0 1.78-.353 2.42-.979a3.303 3.303 0 0 0 1.004-2.362 3.3 3.3 0 0 0-1.003-2.361 3.468 3.468 0 0 0-2.42-.979Zm0 4.453a1.07 1.07 0 0 1-1.083-1.058 1.07 1.07 0 0 1 1.083-1.057c.468.15.785.576.785 1.057s-.317.908-.785 1.058ZM56.957 45.086a3.468 3.468 0 0 0-2.42-.978c-.908 0-1.78.352-2.421.978a3.296 3.296 0 0 0-1.003 2.362 3.3 3.3 0 0 0 1.003 2.362 3.468 3.468 0 0 0 2.42.978 3.411 3.411 0 0 0 2.439-.962 3.236 3.236 0 0 0 .985-2.378c0-.886-.362-1.736-1.003-2.362Zm-1.937 3.39c-.398.166-.86.084-1.174-.206a1.04 1.04 0 0 1-.27-1.134c.15-.397.527-.668.96-.69v-.022c.302-.016.596.091.813.298.216.204.335.488.328.782 0 .423-.258.804-.657.971ZM44.54 46.302H34.272c-.63 0-1.141.497-1.141 1.113s.511 1.114 1.141 1.114h10.27c.63 0 1.14-.5 1.14-1.114 0-.615-.51-1.113-1.14-1.113Z"/><path d="M63.999 37.618a2.78 2.78 0 0 0-.826-2.02 2.919 2.919 0 0 0-2.052-.843h-2.723l-.917-3.073a8.759 8.759 0 0 0-3.3-4.054 9.095 9.095 0 0 0-5.075-1.513H30.3a9.194 9.194 0 0 0-4.91 1.434 8.874 8.874 0 0 0-3.319 3.811l-1.275 3.441h-3.003a2.925 2.925 0 0 0-2.053.845 2.778 2.778 0 0 0-.825 2.018c.011.755.334 1.471.893 1.992l2.435 2.266a4.615 4.615 0 0 0-.973 2.845v5.367a4.536 4.536 0 0 0 1.723 3.61V57.562a3.568 3.568 0 0 0 1.167 2.475c.705.642 1.643.99 2.61.966h1.962a3.3 3.3 0 0 0 2.322-.875c.625-.58.988-1.379 1.008-2.221v-3.099l23.107.073v2.59a3.565 3.565 0 0 0 1.139 2.517c.705.66 1.65 1.02 2.626 1.002h1.963c.866.018 1.703-.3 2.328-.886a3.15 3.15 0 0 0 1.004-2.232v-4.064c.114-.098.225-.201.33-.312a4.607 4.607 0 0 0 1.416-3.34v-5.377a4.603 4.603 0 0 0-1.094-3.007l2.223-2.16c.56-.52.88-1.238.893-1.991l.002-.003ZM52.512 52.7a1.165 1.165 0 0 0-.395 0l-30.237-.096a2.454 2.454 0 0 1-1.688-.742 2.341 2.341 0 0 1-.663-1.686V44.81a2.42 2.42 0 0 1 .708-1.725 2.302 2.302 0 0 1 1.643-.735l17.765.09c2.67-.067 6.116 0 9.254 0h8.49a2.31 2.31 0 0 1 1.597.656c.481.473.748 1.115.742 1.782v5.355a2.41 2.41 0 0 1-.742 1.759 2.31 2.31 0 0 1-1.62.724l-4.854-.015Zm-28.33-20.505a6.607 6.607 0 0 1 2.48-2.802 6.85 6.85 0 0 1 3.637-1.05h18.805c1.327 0 2.623.388 3.721 1.115a6.503 6.503 0 0 1 2.44 2.961l1.063 3.48c.005.204.067.393.17.556l1.124 3.679a6.268 6.268 0 0 0-.269-.01c-2.384.066-5.214 0-8.456 0H21.902c-.216 0-.43.016-.64.046l1.357-3.706c.064-.11.11-.231.132-.361l1.432-3.908Zm-6.988 5.207a.607.607 0 0 1 .565-.375h2.213l-.953 2.571-1.67-1.547a.578.578 0 0 1-.154-.649Zm8.586 20.557a.975.975 0 0 1-1.05.869h-1.962c-.77.044-1.435-.52-1.496-1.27v-2.825c.207.03.416.05.629.052l3.88.013v3.16Zm32.166-.09a.985.985 0 0 1-1.05.892h-1.962c-.773.038-1.434-.538-1.484-1.292v-2.584l3.927.012c.191-.006.382-.025.57-.053v3.026Zm3.584-19.863-1.694 1.576-.776-2.6h2.058c.25 0 .473.15.56.378a.548.548 0 0 1-.15.646h.002Z"/></g><defs><clipPath id="a"><path fill="#fff" d="M0 0h64v61H0z"/></clipPath></defs></svg>