<svg width="64" height="61" fill="none" xmlns="http://www.w3.org/2000/svg"><path d="M11.88 1.423a4.007 4.007 0 0 1 1.366-1.05A3.945 3.945 0 0 1 14.92 0h34.16c.578 0 1.149.127 1.674.373.524.246.99.604 1.366 1.05l10.436 12.38A6.16 6.16 0 0 1 64 17.77v1.037a9.769 9.769 0 0 1-1.769 5.614 9.515 9.515 0 0 1-4.648 3.523 9.352 9.352 0 0 1-5.797.12A9.497 9.497 0 0 1 47 24.737a9.516 9.516 0 0 1-3.325 2.75 9.356 9.356 0 0 1-4.175.98 9.352 9.352 0 0 1-4.175-.98A9.512 9.512 0 0 1 32 24.737a9.512 9.512 0 0 1-3.325 2.75 9.352 9.352 0 0 1-4.175.98 9.352 9.352 0 0 1-4.175-.98A9.512 9.512 0 0 1 17 24.737a9.497 9.497 0 0 1-4.786 3.328 9.352 9.352 0 0 1-5.797-.12 9.515 9.515 0 0 1-4.648-3.523A9.768 9.768 0 0 1 0 18.808v-1.037a6.16 6.16 0 0 1 1.444-3.969L11.884 1.42l-.004.004ZM19 18.808a5.64 5.64 0 0 0 1.61 3.954A5.455 5.455 0 0 0 24.5 24.4c1.459 0 2.858-.59 3.89-1.638A5.64 5.64 0 0 0 30 18.808c0-.539.21-1.056.586-1.437A1.983 1.983 0 0 1 32 16.775c.53 0 1.04.214 1.414.596.375.38.586.898.586 1.437a5.64 5.64 0 0 0 1.61 3.954A5.455 5.455 0 0 0 39.5 24.4c1.459 0 2.858-.59 3.89-1.638A5.64 5.64 0 0 0 45 18.808c0-.539.21-1.056.586-1.437A1.983 1.983 0 0 1 47 16.775c.53 0 1.04.214 1.414.596.375.38.586.898.586 1.437a5.64 5.64 0 0 0 1.61 3.954A5.455 5.455 0 0 0 54.5 24.4c1.459 0 2.858-.59 3.89-1.638A5.64 5.64 0 0 0 60 18.808v-1.037c0-.484-.17-.953-.48-1.321L49.08 4.067H14.92L4.48 16.45c-.31.368-.48.837-.48 1.321v1.037a5.64 5.64 0 0 0 1.61 3.954A5.454 5.454 0 0 0 9.5 24.4c1.459 0 2.858-.59 3.89-1.638A5.64 5.64 0 0 0 15 18.808c0-.539.21-1.056.586-1.437A1.983 1.983 0 0 1 17 16.775c.53 0 1.04.214 1.414.596.375.38.586.898.586 1.437ZM6 30.5c.53 0 1.04.214 1.414.596.375.38.586.898.586 1.437v24.4h4V36.6c0-1.078.421-2.113 1.172-2.876A3.967 3.967 0 0 1 16 32.534h12c1.06 0 2.078.428 2.828 1.19A4.101 4.101 0 0 1 32 36.6v20.333h24v-24.4c0-.539.21-1.056.586-1.438A1.984 1.984 0 0 1 58 30.5c.53 0 1.04.214 1.414.596.375.38.586.898.586 1.437v24.4h2c.53 0 1.04.215 1.414.596.375.381.586.898.586 1.438 0 .539-.21 1.056-.586 1.437A1.983 1.983 0 0 1 62 61H2c-.53 0-1.04-.214-1.414-.596A2.05 2.05 0 0 1 0 58.967c0-.54.21-1.057.586-1.438A1.984 1.984 0 0 1 2 56.933h2v-24.4c0-.539.21-1.056.586-1.438A1.984 1.984 0 0 1 6 30.5Zm10 26.433h12V36.6H16v20.333ZM36 36.6c0-1.078.421-2.113 1.172-2.876A3.967 3.967 0 0 1 40 32.534h8c1.06 0 2.078.428 2.828 1.19A4.101 4.101 0 0 1 52 36.6v12.2a4.101 4.101 0 0 1-1.172 2.876A3.967 3.967 0 0 1 48 52.866h-8a3.967 3.967 0 0 1-2.828-1.19A4.101 4.101 0 0 1 36 48.8V36.6Zm12 0h-8v12.2h8V36.6Z" fill="#fff"/></svg>