<svg width="55" height="55" fill="none" xmlns="http://www.w3.org/2000/svg"><path d="M10.313 8.594a1.719 1.719 0 0 1 1.718-1.719H29.22a1.719 1.719 0 0 1 1.718 1.719V25.78A1.719 1.719 0 0 1 29.22 27.5H12.03a1.719 1.719 0 0 1-1.719-1.719V8.594Z" fill="#fff"/><path d="M3.438 6.875A6.875 6.875 0 0 1 10.311 0h20.626a6.875 6.875 0 0 1 6.875 6.875v27.5a6.875 6.875 0 0 1 6.874 6.875v1.719a1.719 1.719 0 0 0 3.438 0V27.5h-1.719a1.719 1.719 0 0 1-1.718-1.719V15.04a1.719 1.719 0 0 1 1.718-1.719h5.14c-.038-1.636-.183-3.073-.692-4.2A3.335 3.335 0 0 0 49.5 7.545c-.633-.378-1.595-.67-3.094-.67a1.719 1.719 0 0 1 0-3.438c1.939 0 3.555.379 4.854 1.156 1.317.783 2.18 1.894 2.73 3.117C55.002 9.962 55 12.746 55 14.864v10.914a1.721 1.721 0 0 1-1.719 1.722h-1.718v15.469a5.156 5.156 0 1 1-10.313 0V41.25a3.438 3.438 0 0 0-3.438-3.438v13.75h1.72a1.719 1.719 0 1 1 0 3.438H1.718a1.719 1.719 0 0 1 0-3.438h1.718V6.876Zm30.937 0a3.438 3.438 0 0 0-3.438-3.438H10.313a3.437 3.437 0 0 0-3.437 3.438v44.688h27.5V6.874Z" fill="#fff"/></svg>