<svg width="72" height="27" fill="none" xmlns="http://www.w3.org/2000/svg"><path d="M13.307 26.357c-1.81 0-3.502-.333-5.075-1a13.267 13.267 0 0 1-4.146-2.753 13.598 13.598 0 0 1-2.824-4.11c-.667-1.549-1-3.217-1-5.004 0-1.787.333-3.455 1-5.004a13.153 13.153 0 0 1 2.824-4.075 12.967 12.967 0 0 1 4.146-2.788c1.573-.667 3.264-1 5.075-1 1.12 0 2.204.119 3.253.357 1.048.238 2.014.596 2.895 1.072.358.19.62.453.787.787.19.31.285.631.285.965 0 .572-.19 1.084-.571 1.537a1.83 1.83 0 0 1-1.466.679c-.19 0-.393-.024-.607-.072a2.792 2.792 0 0 1-.572-.214 9.776 9.776 0 0 0-1.895-.608 10.044 10.044 0 0 0-2.109-.214c-1.549 0-2.966.393-4.253 1.18A8.641 8.641 0 0 0 6.016 9.2c-.739 1.287-1.108 2.716-1.108 4.289 0 1.549.37 2.978 1.108 4.29a8.938 8.938 0 0 0 3.038 3.144c1.287.763 2.704 1.144 4.253 1.144.715 0 1.502-.071 2.36-.214.857-.143 1.56-.334 2.108-.572l-.321 1.072v-6.112l.607.536h-3.967c-.62 0-1.144-.202-1.573-.607-.405-.405-.608-.918-.608-1.537 0-.62.203-1.132.608-1.537.429-.405.953-.608 1.573-.608h5.862c.62 0 1.131.215 1.537.643.405.406.607.918.607 1.537v7.578c0 .477-.119.87-.357 1.18-.215.31-.465.56-.75.75a15.99 15.99 0 0 1-3.61 1.608 14.27 14.27 0 0 1-4.076.572ZM45.38.98c.572 0 1.037.19 1.394.572.357.381.536.858.536 1.43V23.82a2.14 2.14 0 0 1-.643 1.572c-.405.405-.917.608-1.537.608a3.51 3.51 0 0 1-.965-.143c-.31-.12-.548-.274-.715-.465L29.402 7.557l.93-.572v17.013c0 .572-.191 1.049-.573 1.43-.357.381-.834.572-1.43.572-.571 0-1.036-.19-1.393-.572-.358-.381-.536-.858-.536-1.43V3.16c0-.62.202-1.132.607-1.537A2.14 2.14 0 0 1 28.58.98c.334 0 .68.071 1.037.214.357.12.619.31.786.572L44.02 19.137l-.608.43V2.981c0-.572.179-1.049.536-1.43.358-.381.834-.572 1.43-.572Zm24.818 1.215c.62.31.977.798 1.073 1.466.119.667-.048 1.274-.5 1.823-.31.428-.716.667-1.216.714-.477.048-.965-.047-1.466-.286a9.1 9.1 0 0 0-1.822-.607A8.722 8.722 0 0 0 64.3 5.09c-1.287 0-2.443.203-3.467.608-1.001.405-1.859.989-2.574 1.751a7.523 7.523 0 0 0-1.644 2.645c-.358 1.025-.536 2.157-.536 3.396 0 1.454.202 2.716.608 3.789.428 1.072 1.012 1.966 1.75 2.68a7.171 7.171 0 0 0 2.61 1.609c1 .333 2.085.5 3.253.5.643 0 1.287-.06 1.93-.178a6.626 6.626 0 0 0 1.858-.644c.5-.238.99-.322 1.466-.25.5.072.917.322 1.25.75.477.596.644 1.216.501 1.86-.119.619-.476 1.071-1.072 1.357-.62.31-1.263.572-1.93.787-.644.19-1.299.333-1.966.429-.667.119-1.346.178-2.037.178a14.57 14.57 0 0 1-4.897-.822 12.595 12.595 0 0 1-4.11-2.43c-1.192-1.073-2.133-2.407-2.824-4.003-.691-1.62-1.037-3.491-1.037-5.612 0-1.835.31-3.527.93-5.076.643-1.548 1.536-2.883 2.68-4.003a12.188 12.188 0 0 1 4.11-2.645c1.573-.643 3.29-.965 5.148-.965 1.048 0 2.073.12 3.074.358 1 .238 1.942.583 2.823 1.036Z" fill="#fff"/></svg>