<svg version="1.1" id="Layer_1" xmlns="http://www.w3.org/2000/svg" x="0" y="0" viewBox="0 0 239.4 122" style="enable-background:new 0 0 239.4 122" xml:space="preserve"><style>.st8{fill:#2ca0ff}.st9{fill:#dc4dff}.st13{fill:#fff}</style><defs><filter id="Adobe_OpacityMaskFilter" filterUnits="userSpaceOnUse" x="-17.7" y=".1" width="302.2" height="110.6"><feColorMatrix values="1 0 0 0 0 0 1 0 0 0 0 0 1 0 0 0 0 0 1 0"/></filter></defs><mask maskUnits="userSpaceOnUse" x="-17.7" y=".1" width="302.2" height="110.6" id="a"><path d="M-17.7 121.8V.1h302.2v121.7H-17.7z" style="fill:#fff;filter:url(#Adobe_OpacityMaskFilter)"/></mask><g style="mask:url(#a)"><defs><filter id="Adobe_OpacityMaskFilter_1_" filterUnits="userSpaceOnUse" x="46.5" y="72.3" width="142.2" height="38.3"><feColorMatrix values="1 0 0 0 0 0 1 0 0 0 0 0 1 0 0 0 0 0 1 0"/></filter></defs><mask maskUnits="userSpaceOnUse" x="46.5" y="72.3" width="142.2" height="38.3" id="b"><path d="M-17.7 121.8V.1h302.2v121.7H-17.7z" style="fill:#fff;filter:url(#Adobe_OpacityMaskFilter_1_)"/></mask><g style="opacity:.2;mask:url(#b)"><defs><filter id="Adobe_OpacityMaskFilter_2_" filterUnits="userSpaceOnUse" x="46.5" y="72.3" width="142.2" height="38.3"><feColorMatrix values="1 0 0 0 0 0 1 0 0 0 0 0 1 0 0 0 0 0 1 0"/></filter></defs><mask maskUnits="userSpaceOnUse" x="46.5" y="72.3" width="142.2" height="38.3" id="c"><path d="M46.5 110.6V72.3h142.2v38.3H46.5z" style="fill:#fff;filter:url(#Adobe_OpacityMaskFilter_2_)"/></mask><g style="mask:url(#c)"><path d="M142.6 105.6c-5.9 0-10-4-10-9.8h1.4c0 5 3.5 8.4 8.7 8.4 5.1 0 8.6-3 8.6-7.3 0-5.4-3.5-6.8-9.3-8.6-2.3-.7-6.1-1.8-6.1-6 0-3.4 2.6-5.7 6.6-5.7 4.4 0 7.4 3 7.4 7.4h-1.4c0-3.7-2.3-6-6-6-3.2 0-5.2 1.7-5.2 4.4 0 3 2.3 3.9 5.2 4.8 5.3 1.7 10.3 3.3 10.3 9.9-.2 4.9-4.4 8.5-10.2 8.5m-48.7-1.1-.1-1.3c6.5-.7 11.4-6.2 11.4-12.7 0-7-5.7-12.8-12.8-12.8s-12.8 5.7-12.8 12.8c0 6.3 4.5 11.6 10.7 12.6l-.2 1.3c-6.9-1.1-11.9-7-11.9-13.9 0-7.8 6.3-14.1 14.1-14.1s14.1 6.3 14.1 14.1c.1 7.2-5.3 13.3-12.5 14m75.5 0-.1-1.3c6.5-.7 11.4-6.2 11.4-12.7 0-7-5.7-12.8-12.8-12.8s-12.8 5.7-12.8 12.8c0 6.3 4.5 11.6 10.7 12.6l-.2 1.3c-6.9-1.1-11.9-7-11.9-13.9 0-7.8 6.3-14.1 14.1-14.1s14.1 6.3 14.1 14.1c.1 7.2-5.3 13.3-12.5 14m-102.2.1c-7.8 0-14.1-6.3-14.1-14.1s6.3-14.1 14.1-14.1c3.5 0 6.8 1.3 9.4 3.6l-.9 1c-2.3-2.1-5.3-3.2-8.5-3.2-7 0-12.8 5.7-12.8 12.8 0 7 5.7 12.8 12.8 12.8 3.1 0 6.1-1.1 8.5-3.2l.9 1c-2.6 2.1-5.9 3.4-9.4 3.4m61.4 1.7-16.4-26.9v24.5h-1.4V74.6l16.4 26.9V78.2h1.4v28.1z"/><path d="M188.7 110.6H50.5v-1.4h136.8V73.7H47.8V110h-1.4V72.3h142.2v38.3z"/></g></g><defs><filter id="Adobe_OpacityMaskFilter_3_" filterUnits="userSpaceOnUse" x="-17.7" y=".1" width="302.2" height="63.7"><feColorMatrix values="1 0 0 0 0 0 1 0 0 0 0 0 1 0 0 0 0 0 1 0"/></filter></defs><mask maskUnits="userSpaceOnUse" x="-17.7" y=".1" width="302.2" height="63.7" id="d"><path d="m81.2 27.4.5.6h-1.3v1.7c-1.2-1.4-2.5-2.8-3.7-4.2l-.1-.1-16.8-.8h-.1l-.1.1c-6.6 6.2-8.2 7.8-8.5 8.2-2.2 2.7-3.4 6-3.4 9.5L43.5 46l-11.2-5.2-2-2.2c1.1-2.3 3.3-3.6 5.7-3.6 2.3 0 4.2 1 6 3.2l.2.2 12.9-12-2.6-2.1-19.1-.2h-.1l-.1.1c-7 6.7-8.7 8.3-9 8.8-2.1 2.7-3.2 5.9-3.2 9.5v.1c0 8.5 6.4 14.9 14.9 14.9 5.5 0 9.5-2 12.7-6.5l1.2-1.1c2.7 4.8 7.7 7.6 13.6 7.6 3.4 0 6.5-1 9.2-2.8l7.9-7.5V57h8.2v-.2l6.7-7 5.1 7.2H107.7c.1-.1.5-.4 2.7-2.6 3.2 2 7.1 3.1 11.3 3.1 3.4 0 6.3-.8 8.4-2.5l.2-.3c.5-.4 1-.9 1.3-1.4l3.1-3.3v6.8h23.5l1.7-1.8v1.8h7.9l.7-.1v-.1c.2-.3 1.4-1.6 2.4-2.7v2.9h21.6l2.4-2.1c3 1.7 6.6 2.6 10.4 2.6 3 0 5.7-.7 7.7-1.9 1.1-.7 2-1.6 2.7-2.7l6-6-1.9-.9L217 47c0-.5-.1-1-.3-1.4.1 0 .2-.1.3-.2.1-.2.5-.7.9-1.2 1.2-1.6 1.8-2.5 1.5-2.8-.3-.5-2.4-3.5-2.4-3.5l-2.5-3.7 1.4-2 .5-.4 2.7-1.6v-.1c.3-1.9.7-4.2.2-4.6-.5-.3-5.5-1.7-6-1.9l-10-.2-8.8 8.8c-.8 1.4-1.2 2.9-1.2 4.6v.2c0 5.2 3.7 7.2 8.2 8.4-1.4-.1-2.4-.1-2.4-.1h-.1l-2.2 1.8c-.7-.4-.8-.5-.9-.5h-4c-.3.1-2.8 1.2-3.2 1.7-.2.2-.2.6-.1 1.3h-9.2v-18l1.6-2-2.7-8.3-7.6 7.3.4.4v19.5l-2.7-.5V31.5c2.3-1.1 2.4-1.3 2.4-1.5.1-.3-1-3.1-3.3-8.4l-.1-.3-4.9 4.5c-1.4-1.2-1.8-1.4-1.9-1.5-.6-.3-4.7-.1-5.5 0h-.1l-1.6 2.7-1-.9-5.2-3.8c-.5-.7-3.9-.9-5-1h-.1l-7.2 6.7c-1.4-3.5-1.5-3.6-1.5-3.7-.1-.1-.3-.3-13.1-1.2h-.1l-7.5 7c-.4-.6-.7-3.6-.9-5.2-.3-2.9-.4-3.2-.7-3.3-.1 0-.2 0-.2.1l-3.9-.4-7.1 6.8h-.2v.1l-1.2 1.2L88 21.1l-.4-.1-6.4 6.4z" style="fill:#fff;filter:url(#Adobe_OpacityMaskFilter_3_)"/></mask><g style="mask:url(#d)"><path class="st8" d="m78.9 58.6 8.9-8.8V19.6L80 27.9l-1.1 30.7zm27.7-37.9s-8 7.5-8.2 7.9l8.2 8.8V20.7zm-78 11.2c.4-3.6 4.8-8.5 4.8-8.5S19 29.1 17.9 30.1s-4 5-5.6 6.6c-1.5 1.5-.5 12.3-.7 13.3-.2 1 14.4 7.7 14.4 7.7l9.4-9.6c-5.6-4.2-7.2-12.7-6.8-16.2m23.8-.5L49 29c-.7 0-2.1-.7-2.1-.7l-9.3 9.9s3.8 3.1 4.1 2.8c.3-.3 7.6-5.3 7.6-5.3l3.1-4.3z"/><path class="st8" d="M59.5 24.8c-.4.4-9.6 8.6-9.6 8.6L46.3 38l-.8 5 4.9 3.9 2 .4-3 2.6 2.6 7.6 4.5-1.3 8-8.1s-5-11.6-5-12.7c.1-1.2 0-10.6 0-10.6M120 38.7l3.5-2.7s-2.4-5-2.4-5.5-2.4-7.6-2.4-7.6l-5.3 4.8v18.6l.5-.6v3.9l-5 5 5 3.2 9.6-9.8-7.3-4.8 3.8-4.5zM95.7 50.2l3.4 8s8.5-8.4 8.8-8.5L95.7 33.9v16.3zM138.8 24l-3.4 6-2.7 2.7s6.5 1.6 7.3 7.7c.8 5.6-5.1 9.2-5.1 9.2l-1.5 9.4 8.7-9.1 1-1.2L142 21l-3.2 3zm26.3-.1v4l-.3.2S160.9 32 161 32c.1 0 2.7.3 2.7.3v6.4l-1.7.2-3.9 4 7.2.1v6.7l-7.5 7.9s1.5.3 1.6.2c.1-.1 8.4-8.1 8.4-8.1l-.3-28.3-2.4 2.5zm10 .5.1 25.4-4.3 4.4-1 3.7s.5.8.5.7c0-.1.5-1.8.5-1.8l7.5-7.4-.2-28.1-3.1 3.1zm25.8 7.8c-.1-3.8 1.3-8 1.3-8l-10.1 9.2-.8 5.3.3 1.5 3.2 2.5h5s-.2 1.9 0 1.8l3.6-4.3s1.6 1.1 1.6 1.2l3-3.3s-6.9-2.2-7.1-5.9m-.4 14.3c-.4.2-.2 3.4-.2 3.4l-5.5 4.9.3 3s2.7.2 2.9.2 8.5-8.5 8.5-8.5l-5.8-3.2-.2.2z"/><path class="st9" d="M7.1 60.1V15.7H235v44.4H7.1z"/><path class="st8" d="m78.9 58.6 8.9-8.8V19.6L80 27.9l-1.1 30.7zm27.7-37.9s-8 7.5-8.2 7.9l8.2 8.8V20.7zm-78 11.2c.4-3.6 4.8-8.5 4.8-8.5S19 29.1 17.9 30.1s-4 5-5.6 6.6c-1.5 1.5-.5 12.3-.7 13.3-.2 1 14.4 7.7 14.4 7.7l9.4-9.6c-5.6-4.2-7.2-12.7-6.8-16.2m23.8-.5L49 29c-.7 0-2.1-.7-2.1-.7l-9.3 9.9s3.8 3.1 4.1 2.8c.3-.3 7.6-5.3 7.6-5.3l3.1-4.3z"/><path class="st8" d="M59.5 24.8c-.4.4-9.6 8.6-9.6 8.6L46.3 38l-.8 5 4.9 3.9 2 .4-3 2.6 2.6 7.6 4.5-1.3 8-8.1s-5-11.6-5-12.7c.1-1.2 0-10.6 0-10.6M120 38.7l3.5-2.7s-2.4-5-2.4-5.5-2.4-7.6-2.4-7.6l-5.3 4.8v18.6l.5-.6v3.9l-5 5 5 3.2 9.6-9.8-7.3-4.8 3.8-4.5zM95.7 50.2l3.4 8s8.5-8.4 8.8-8.5L95.7 33.9v16.3zM138.8 24l-3.4 6-2.7 2.7s6.5 1.6 7.3 7.7c.8 5.6-5.1 9.2-5.1 9.2l-1.5 9.4 8.7-9.1 1-1.2L142 21l-3.2 3zm26.3-.1v4l-.3.2S160.9 32 161 32c.1 0 2.7.3 2.7.3v6.4l-1.7.2-3.9 4 7.2.1v6.7l-7.5 7.9s1.5.3 1.6.2c.1-.1 8.4-8.1 8.4-8.1l-.3-28.3-2.4 2.5zm10 .5.1 25.4-4.3 4.4-1 3.7s.5.8.5.7c0-.1.5-1.8.5-1.8l7.5-7.4-.2-28.1-3.1 3.1zm25.8 7.8c-.1-3.8 1.3-8 1.3-8l-10.1 9.2-.8 5.3.3 1.5 3.2 2.5h5s-.2 1.9 0 1.8l3.6-4.3s1.6 1.1 1.6 1.2l3-3.3s-6.9-2.2-7.1-5.9m-.4 14.3c-.4.2-.2 3.4-.2 3.4l-5.5 4.9.3 3s2.7.2 2.9.2 8.5-8.5 8.5-8.5l-5.8-3.2-.2.2z"/><path d="m45.8 1.3-.4-.6-.3-.6C43.9.7-3.3 48.3-17.7 62.8l1 1C4.2 42.7 44.2 2.4 45.8 1.3m4.1 0-.4-.6-.3-.6C48.1.7.9 48.3-13.5 62.8l1 1C8.4 42.7 48.4 2.4 49.9 1.3m4.2 0-.4-.6-.3-.6C52.3.7 5.1 48.3-9.3 62.8l1 1C12.5 42.7 52.5 2.4 54.1 1.3m4.2 0L58 .7l-.3-.6C56.4.7 9.3 48.3-5.2 62.8l1 1C16.7 42.7 56.7 2.4 58.3 1.3m4.2 0-.4-.6-.3-.6C60.6.7 13.5 48.3-1 62.8l1 1C20.9 42.7 60.9 2.4 62.5 1.3m4.2 0-.4-.6-.3-.6C64.8.7 17.7 48.3 3.2 62.8l1 1C25.1 42.7 65.1 2.4 66.7 1.3m4.2 0-.4-.6-.3-.6C69 .7 21.8 48.3 7.4 62.8l1 1C29.3 42.7 69.3 2.4 70.9 1.3m4.2 0-.4-.6-.3-.6C73.2.7 26 48.3 11.6 62.8l1 1C33.5 42.7 73.5 2.4 75.1 1.3m4.2 0-.4-.6-.3-.6c-1.2.6-48.4 48.2-62.8 62.8l1 1C37.7 42.7 77.7 2.4 79.3 1.3m4.2 0-.4-.6-.3-.6C81.6.7 34.4 48.3 20 62.8l1 1C41.9 42.7 81.9 2.4 83.5 1.3m4.1 0-.4-.6-.2-.6c-1.2.6-48.4 48.2-62.8 62.8l1 1C46 42.7 86 2.4 87.6 1.3m4.2 0-.4-.6-.3-.6C90 .7 42.8 48.3 28.3 62.8l1 1C50.2 42.7 90.2 2.4 91.8 1.3m4.2 0-.4-.6-.3-.6C94.1.7 47 48.3 32.5 62.8l1 1C54.4 42.7 94.4 2.4 96 1.3m4.2 0-.4-.6-.3-.6c-1.2.6-48.4 48.2-62.8 62.8l1 1C58.6 42.7 98.6 2.4 100.2 1.3m4.2 0-.4-.6-.3-.6c-1.2.6-48.4 48.2-62.8 62.8l1 1c20.9-21.2 60.9-61.5 62.5-62.6m4.2 0-.4-.6-.3-.6c-1.2.6-48.4 48.2-62.8 62.8l1 1C67 42.7 107 2.4 108.6 1.3m4.2 0-.4-.6-.3-.6c-1.2.6-48.4 48.2-62.8 62.8l1 1c20.9-21.2 60.9-61.5 62.5-62.6m4.1 0-.4-.6-.3-.6c-1.2.6-48.4 48.2-62.8 62.8l1 1c21-21.2 61-61.5 62.5-62.6m4.2 0-.4-.6-.3-.6C119.2.7 72 48.3 57.6 62.9l1 1c21-21.2 60.9-61.5 62.5-62.6m4.2 0-.3-.6-.3-.6c-1.2.6-48.4 48.2-62.8 62.8l1 1c20.8-21.2 60.8-61.5 62.4-62.6m4.2 0-.4-.6-.3-.6C127.6.7 80.5 48.3 66 62.8l1 1c20.9-21.1 60.9-61.4 62.5-62.5m4.2 0-.4-.6-.3-.6c-1.2.6-48.4 48.2-62.8 62.8l1 1c20.9-21.2 60.9-61.5 62.5-62.6m4.2 0-.4-.6-.3-.6c-1.2.6-48.4 48.2-62.8 62.7l1 1c20.9-21.1 60.9-61.4 62.5-62.5m4.2 0-.4-.6-.3-.6C140.2.7 93 48.3 78.6 62.8l1 1c20.9-21.1 60.9-61.4 62.5-62.5m4.2 0-.4-.6-.3-.6c-1.2.6-48.4 48.2-62.8 62.8l1 1c20.9-21.2 60.9-61.5 62.5-62.6m4.1 0-.4-.6-.3-.6c-1.2.6-48.4 48.2-62.8 62.8l1 1c21-21.2 61-61.5 62.5-62.6m4.2 0-.4-.6-.2-.6c-1.2.6-48.4 48.2-62.8 62.8l1 1C113.1 42.7 153 2.4 154.6 1.3m4.2 0-.4-.6-.3-.6c-1.2.6-48.4 48.2-62.8 62.8l1 1c20.9-21.2 60.9-61.5 62.5-62.6m4.2 0-.4-.6-.3-.6c-1.2.6-48.4 48.2-62.8 62.8l1 1C121.4 42.7 161.4 2.4 163 1.3m4.2 0-.4-.6-.3-.6c-1.2.6-48.4 48.2-62.8 62.8l1 1c20.9-21.2 60.9-61.5 62.5-62.6m4.2 0-.4-.6-.3-.6c-1.2.6-48.4 48.2-62.8 62.8l1 1c20.9-21.2 60.9-61.5 62.5-62.6m4.2 0-.4-.6-.3-.6c-1.2.6-48.4 48.2-62.8 62.8l1 1C134 42.7 174 2.4 175.6 1.3m4.2 0-.4-.6-.3-.6c-1.2.6-48.4 48.2-62.8 62.8l1 1c20.9-21.2 60.9-61.5 62.5-62.6m4.2 0-.4-.6-.3-.6c-1.2.6-48.4 48.2-62.8 62.8l1 1C142.4 42.7 182.4 2.4 184 1.3m4.1 0-.4-.6-.3-.6c-1.2.6-48.4 48.2-62.8 62.8l1 1c21-21.2 60.9-61.5 62.5-62.6m4.2 0-.3-.6-.3-.6c-1.2.6-48.4 48.2-62.8 62.8l1 1c20.8-21.2 60.8-61.5 62.4-62.6m4.2 0-.4-.6-.3-.6c-1.2.6-48.4 48.2-62.8 62.8l1 1c20.9-21.2 60.9-61.5 62.5-62.6m4.2 0-.4-.6-.3-.6c-1.2.6-48.4 48.2-62.8 62.8l1 1c20.9-21.2 60.9-61.5 62.5-62.6m4.2 0-.4-.6-.3-.6c-1.2.6-48.4 48.2-62.8 62.8l1 1c20.9-21.2 60.9-61.5 62.5-62.6m4.2 0-.4-.6-.3-.6c-1.2.6-48.4 48.2-62.8 62.8l1 1c20.9-21.2 60.9-61.5 62.5-62.6m4.2 0-.4-.6-.3-.6c-1.2.6-48.4 48.2-62.8 62.8l1 1c20.9-21.2 60.9-61.5 62.5-62.6m4.2 0-.4-.6-.3-.6c-1.2.6-48.4 48.2-62.8 62.8l1 1c20.9-21.2 60.9-61.5 62.5-62.6m4.1 0-.4-.6-.2-.6c-1.2.6-48.4 48.2-62.8 62.8l1 1C180.1 42.7 220 2.4 221.6 1.3m4.2 0-.4-.6-.3-.6c-1.2.6-48.4 48.2-62.8 62.8l1 1c20.9-21.2 60.9-61.5 62.5-62.6m4.2 0-.4-.6-.3-.6c-1.2.6-48.4 48.2-62.8 62.8l1 1C188.4 42.7 228.4 2.4 230 1.3m4.2 0-.4-.6-.3-.6c-1.2.6-48.4 48.2-62.8 62.8l1 1c20.9-21.2 60.9-61.5 62.5-62.6m4.2 0-.4-.6-.3-.6c-1.2.6-48.4 48.2-62.8 62.8l1 1c20.9-21.2 60.9-61.5 62.5-62.6m4.2 0-.4-.6-.3-.6c-1.2.6-48.4 48.2-62.8 62.8l1 1C201 42.7 241 2.4 242.6 1.3m4.2 0-.4-.6-.3-.6c-1.2.6-48.4 48.2-62.8 62.8l1 1c20.9-21.2 60.9-61.5 62.5-62.6m4.2 0-.4-.6-.3-.6c-1.2.6-48.4 48.2-62.8 62.8l1 1C209.4 42.7 249.4 2.4 251 1.3m4.1 0-.4-.6-.3-.6c-1.2.6-48.4 48.2-62.8 62.8l1 1c21-21.2 61-61.5 62.5-62.6m4.2 0-.3-.6-.3-.6c-1.2.6-48.4 48.2-62.8 62.8l1 1c20.8-21.2 60.8-61.5 62.4-62.6m4.2 0-.4-.6-.3-.6c-1.2.6-48.4 48.2-62.8 62.8l1 1c20.9-21.2 60.9-61.5 62.5-62.6m4.2 0-.4-.6-.3-.6c-1.2.6-48.4 48.2-62.8 62.8l1 1c20.9-21.2 60.9-61.5 62.5-62.6m4.2 0-.4-.6-.3-.6c-1.2.6-48.4 48.2-62.8 62.8l1 1c20.9-21.2 60.9-61.5 62.5-62.6m4.2 0-.4-.6-.3-.6c-1.2.6-48.4 48.2-62.8 62.8l1 1c20.9-21.2 60.9-61.5 62.5-62.6m4.2 0-.4-.6-.3-.6c-1.2.6-48.4 48.2-62.8 62.8l1 1c20.9-21.2 60.9-61.5 62.5-62.6m3.8-.6-.3-.6c-1.2.6-48.4 48.2-62.8 62.8l1 1c20.9-21.1 60.9-61.4 62.5-62.5 0-.1-.4-.7-.4-.7z" style="fill:#103a77"/></g><defs><filter id="Adobe_OpacityMaskFilter_4_" filterUnits="userSpaceOnUse" x="28.4" y="20.6" width="195.5" height="84.9"><feColorMatrix values="1 0 0 0 0 0 1 0 0 0 0 0 1 0 0 0 0 0 1 0"/></filter></defs><mask maskUnits="userSpaceOnUse" x="28.4" y="20.6" width="195.5" height="84.9" id="e"><path d="M-17.7 121.8V.1h302.2v121.7H-17.7z" style="fill:#fff;filter:url(#Adobe_OpacityMaskFilter_4_)"/></mask><g style="mask:url(#e)"><path class="st13" d="M28.4 35.5c0-8.4 6.3-14.8 14.9-14.8 5.8 0 9.5 2.4 12 5.9l-5.9 4.6c-1.6-2-3.5-3.3-6.2-3.3-4 0-6.8 3.4-6.8 7.5v.1c0 4.3 2.8 7.6 6.8 7.6 3 0 4.7-1.4 6.4-3.4l5.9 4.2c-2.7 3.7-6.3 6.4-12.5 6.4-8.1-.2-14.6-6.4-14.6-14.8"/><path class="st13" d="M77.7 35.5c0-4.2-2.9-7.7-7.3-7.7-4.3 0-7.2 3.5-7.2 7.6v.1c0 4.1 3 7.7 7.3 7.7 4.3-.2 7.2-3.6 7.2-7.7m-22.5 0c0-8.2 6.6-14.8 15.3-14.8 8.8 0 15.2 6.5 15.2 14.7v.1c0 8.2-6.6 14.8-15.3 14.8-8.7-.2-15.2-6.7-15.2-14.8m32.6-14.3h7.3l11.7 15v-15h7.8v28.4h-6.9L95.6 34v15.6h-7.8V21.2zm27.6 24.2 4.4-5.2c2.8 2.2 5.9 3.4 9.2 3.4 2.1 0 3.3-.7 3.3-1.9v-.1c0-1.2-.9-1.8-4.8-2.8-6-1.4-10.7-3.1-10.7-8.9v-.1c0-5.3 4.2-9.1 11-9.1 4.8 0 8.6 1.3 11.7 3.8l-3.9 5.6c-2.6-1.9-5.4-2.8-7.9-2.8-1.9 0-2.8.8-2.8 1.8v.1c0 1.3 1 1.9 4.9 2.8 6.5 1.4 10.5 3.5 10.5 8.8v.1c0 5.8-4.6 9.3-11.5 9.3-5.1-.1-9.8-1.7-13.4-4.8M142 21.2h22.8v6.6h-15v4.3h13.6v6.2h-13.6v4.5H165v6.7h-23V21.2zm25.3 28.4V21.2h7.9v28.4h-7.9zm11-28.4h7.9v21.5H200v6.9h-21.6V21.2z"/><path class="st13" d="m199.1 45.4 4.4-5.2c2.8 2.2 5.9 3.4 9.2 3.4 2.1 0 3.3-.7 3.3-1.9v-.1c0-1.2-.9-1.8-4.8-2.8-6-1.4-10.7-3.1-10.7-8.9v-.1c0-5.3 4.2-9.1 11-9.1 4.8 0 8.6 1.3 11.7 3.8l-3.9 5.6c-2.6-1.9-5.4-2.8-7.9-2.8-1.9 0-2.8.8-2.8 1.8v.1c0 1.3 1 1.9 4.9 2.8 6.5 1.4 10.5 3.5 10.5 8.8v.1c0 5.8-4.6 9.3-11.5 9.3-5.1-.1-9.8-1.7-13.4-4.8"/><path class="st9" d="M148.6 100.4c-5.9 0-10-4-10-9.8 0-.4.3-.7.7-.7.4 0 .7.3.7.7 0 5 3.5 8.4 8.7 8.4 5.1 0 8.6-3 8.6-7.3 0-5.4-3.5-6.7-9.3-8.6-2.3-.7-6.1-1.8-6.1-6 0-3.4 2.6-5.7 6.6-5.7 4.4 0 7.4 3 7.4 7.3 0 .4-.3.7-.7.7-.4 0-.7-.3-.7-.7 0-3.7-2.3-6-6-6-3.2 0-5.2 1.7-5.2 4.4 0 3 2.3 3.9 5.2 4.8 5.3 1.7 10.3 3.3 10.3 9.9-.2 5-4.4 8.6-10.2 8.6m-48.7-1.1c-.4 0-.7-.3-.7-.7 0-.3.3-.6.6-.7 6.5-.7 11.4-6.2 11.4-12.7 0-7-5.7-12.8-12.8-12.8-7 0-12.8 5.7-12.8 12.8 0 6.3 4.5 11.6 10.7 12.6.4.1.6.4.6.8-.1.4-.4.6-.8.6-6.9-1.1-11.9-7-11.9-13.9 0-7.8 6.3-14.1 14.1-14.1s14.1 6.3 14.1 14.1c.2 7.2-5.3 13.3-12.5 14m75.5 0c-.4 0-.7-.3-.7-.7 0-.3.3-.6.6-.7 6.5-.7 11.4-6.2 11.4-12.7 0-7-5.7-12.8-12.8-12.8-7 0-12.8 5.7-12.8 12.8 0 6.3 4.5 11.6 10.7 12.6.4.1.6.4.6.8-.1.4-.4.6-.8.6-6.9-1.1-11.9-7-11.9-13.9 0-7.8 6.3-14.1 14.1-14.1s14.1 6.3 14.1 14.1c.2 7.2-5.3 13.3-12.5 14m-102.2.1c-7.8 0-14.1-6.3-14.1-14.1s6.3-14.1 14.1-14.1c3.5 0 6.8 1.3 9.4 3.6.3.2.3.7.1 1s-.7.3-1 .1c-2.3-2.1-5.3-3.2-8.5-3.2-7 0-12.8 5.7-12.8 12.8 0 7 5.7 12.8 12.8 12.8 3.1 0 6.1-1.1 8.5-3.2.3-.2.7-.2 1 .1.2.3.2.7-.1.9-2.6 2.1-5.9 3.3-9.4 3.3m60.7 0c-.2 0-.5-.1-.6-.3l-15.1-24.8v24.5c0 .4-.3.7-.7.7-.4 0-.7-.3-.7-.7V71.9c0-.4.3-.7.7-.7.2 0 .5.1.6.3l15.1 24.8V73c0-.4.3-.7.7-.7s.7.3.7.7v25.8c0 .3-.3.6-.7.6"/><path class="st9" d="M194 105.5H56.5c-.4 0-.7-.3-.7-.7 0-.4.3-.7.7-.7h136.8V68.5H53.9v36.3c0 .4-.3.7-.7.7s-.7-.3-.7-.7v-37c0-.4.3-.7.7-.7H194c.4 0 .7.3.7.7v37c0 .4-.3.7-.7.7"/></g></g></svg>